<svg width="32" height="32" viewBox="0 0 32 32" fill="none" xmlns="http://www.w3.org/2000/svg">
<path d="M16.0615 -0.120117C12.8851 -0.120416 9.77988 0.821231 7.13863 2.58574C4.49738 4.35025 2.4387 6.85837 1.22293 9.79292C0.00716026 12.7275 -0.311096 15.9566 0.308411 19.0721C0.927918 22.1875 2.45736 25.0492 4.70333 27.2954C6.94929 29.5416 9.8109 31.0713 12.9263 31.6911C16.0416 32.3109 19.2708 31.993 22.2055 30.7775C25.1402 29.562 27.6485 27.5035 29.4132 24.8624C31.178 22.2214 32.1199 19.1163 32.1199 15.9398C32.1201 13.8309 31.7049 11.7426 30.898 9.79408C30.0911 7.8456 28.9082 6.07515 27.4171 4.58383C25.9259 3.0925 24.1555 1.90951 22.2071 1.1024C20.2587 0.295297 18.1704 -0.120117 16.0615 -0.120117ZM16.0615 29.8859C13.3032 29.8859 10.6069 29.068 8.31344 27.5356C6.02002 26.0032 4.23251 23.8251 3.17697 21.2768C2.12142 18.7285 1.84524 15.9244 2.38335 13.2191C2.92147 10.5138 4.2497 8.02886 6.2001 6.07847C8.1505 4.12807 10.6355 2.79983 13.3407 2.26172C16.046 1.72361 18.8501 1.99979 21.3984 3.05533C23.9467 4.11088 26.1248 5.89839 27.6572 8.19181C29.1896 10.4852 30.0076 13.1816 30.0076 15.9398C30.0032 19.6372 28.5325 23.1819 25.918 25.7964C23.3036 28.4108 19.7589 29.8816 16.0615 29.8859Z" fill="#F8F7FE"/>
<path d="M26.0499 17.3988C25.9469 17.3704 25.8394 17.3627 25.7334 17.3759C25.6275 17.3891 25.5252 17.4232 25.4324 17.476C25.3396 17.5288 25.2582 17.5995 25.1927 17.6838C25.1273 17.7682 25.0791 17.8646 25.051 17.9676C24.5077 19.9299 23.338 21.6608 21.72 22.8968C20.102 24.1327 18.1243 24.806 16.0883 24.814C14.0522 24.822 12.0693 24.1644 10.4416 22.9412C8.81391 21.7181 7.63057 19.9965 7.07182 18.0386C7.0421 17.9359 6.99245 17.8401 6.92571 17.7567C6.85898 17.6732 6.77646 17.6038 6.68287 17.5522C6.49385 17.4481 6.27121 17.4233 6.06392 17.4833C5.85664 17.5433 5.68168 17.6833 5.57756 17.8723C5.47343 18.0613 5.44865 18.2839 5.50867 18.4912C6.16432 20.7906 7.55372 22.8126 9.46515 24.2491C11.3766 25.6856 13.7052 26.4578 16.0963 26.4481C18.4873 26.4384 20.8096 25.6472 22.7093 24.1952C24.6089 22.7431 25.9818 20.7099 26.6187 18.4052C26.648 18.3018 26.6565 18.1936 26.6437 18.0868C26.6309 17.9801 26.5971 17.8769 26.5442 17.7834C26.4913 17.6898 26.4204 17.6076 26.3355 17.5416C26.2507 17.4756 26.1536 17.4271 26.0499 17.3988Z" fill="#F8F7FE"/>
<path d="M24.1049 17.3642C23.9541 17.7806 24.8262 17.9813 25.8567 18.3555C26.8872 18.7297 27.6854 19.1356 27.8363 18.7191C27.9872 18.3027 27.9872 17.4743 26.4044 16.8467C24.8216 16.219 24.2573 16.9462 24.1049 17.3642Z" fill="#F8F7FE"/>
<path d="M8.02326 17.3642C8.17415 17.7806 7.30204 17.9813 6.27151 18.3555C5.24099 18.7297 4.44432 19.1356 4.29193 18.7191C4.13954 18.3027 4.14105 17.4743 5.72381 16.8467C7.30657 16.219 7.87238 16.9462 8.02326 17.3642Z" fill="#F8F7FE"/>
<path d="M10.4695 10.8036L11.7792 16.8706C11.8499 17.1962 12.0282 17.4885 12.2854 17.7002C12.5427 17.912 12.8638 18.0308 13.1969 18.0376C13.53 18.0444 13.8557 17.9388 14.1213 17.7377C14.387 17.5366 14.5771 17.2519 14.661 16.9294L16.0612 11.5233L17.4599 16.9294C17.5433 17.2526 17.7332 17.5382 17.9991 17.7399C18.265 17.9416 18.5912 18.0476 18.9249 18.0408C19.2586 18.034 19.5802 17.9147 19.8376 17.7024C20.095 17.49 20.2732 17.1969 20.3433 16.8706L21.6514 10.8036L22.3305 14.0626L24.2919 13.9117L24.1018 13.0427C23.88 11.7262 23.5623 10.4276 23.1512 9.15745C22.4828 7.14467 20.974 7.14467 20.5455 8.23103C20.117 9.31739 18.8586 14.5002 18.8586 14.5002L17.5112 8.88586C17.4305 8.54858 17.2487 8.244 16.9901 8.0129C16.7315 7.78181 16.4085 7.63523 16.0642 7.5928C15.7198 7.63494 15.3964 7.78139 15.1375 8.01251C14.8786 8.24362 14.6966 8.54836 14.6158 8.88586L13.2684 14.5002C13.2684 14.5002 12.01 9.32191 11.58 8.23103C11.15 7.14015 9.63815 7.14467 8.97427 9.15896C8.56224 10.429 8.24403 11.7276 8.0222 13.0442L7.8457 14.0626H9.80718L10.4695 10.8036Z" fill="#F8F7FE"/>
<circle cx="8.82569" cy="14.1372" r="0.979984" fill="#F8F7FE"/>
<path d="M24.2916 13.9871C24.2916 14.5287 23.8525 14.9678 23.3108 14.9678C22.7692 14.9678 22.3301 14.5287 22.3301 13.9871C22.3301 13.4454 22.7692 13.0063 23.3108 13.0063C23.8525 13.0063 24.2916 13.4454 24.2916 13.9871Z" fill="#F8F7FE"/>
</svg>
