<svg width="19" height="19" viewBox="0 0 19 19" fill="none" xmlns="http://www.w3.org/2000/svg">
<g clip-path="url(#clip0_608_138371)">
<path d="M16.1168 3.40918L17.4363 4.05161V15.1986L16.1168 15.8411L14.0332 9.64249L16.1168 3.40918Z" fill="#5294CF"/>
<path d="M2.95435 3.40918L1.63477 4.05161V15.1986L2.95435 15.8411L6.25332 9.64249L2.95435 3.40918ZM9.53492 14.2437L16.1155 15.8411V3.40918L9.53492 5.00657V14.2437Z" fill="#205B99"/>
<path d="M9.53565 14.2437L2.95508 15.8411V3.40918L9.53565 5.00657V14.2437Z" fill="#5294CF"/>
<path d="M11.1155 18.3239L13.6331 17.0738V2.21107L11.1155 0.960938L8.61523 9.22572L11.1155 18.3239Z" fill="#5294CF"/>
<path d="M7.95513 18.3239L5.4375 17.0738V2.21107L7.95513 0.960938L10.195 9.64243L7.95513 18.3239Z" fill="#205B99"/>
<path d="M11.1151 0.960938H7.95508V18.3239H11.1151V0.960938Z" fill="#2E73B8"/>
</g>
<defs>
<clipPath id="clip0_608_138371">
<rect width="17.363" height="17.363" fill="white" transform="translate(0.853516 0.960938)"/>
</clipPath>
</defs>
</svg>
