<svg width="18" height="19" viewBox="0 0 18 19" fill="none" xmlns="http://www.w3.org/2000/svg">
<g clip-path="url(#clip0_608_138360)">
<path d="M1.72852 14.7301L2.64875 15.1816L2.80502 14.9211V4.295L2.64875 4.104L1.72852 4.55544V14.7301Z" fill="#9D5025"/>
<path d="M4.4021 4.53808L2.64844 4.104V15.1989L4.4021 14.7822V4.53808Z" fill="#F68536"/>
<path d="M9.80273 5.37143L11.0529 4.729L15.22 6.34376L14.1261 6.48266L9.80273 5.37143Z" fill="#6B3A19"/>
<path d="M9.85352 13.914L11.0863 14.5564L15.2534 12.9416L14.1422 12.8027L9.85352 13.914Z" fill="#FBBF93"/>
<path d="M10.1663 12.1256L12.3714 12.4207L12.4929 12.195V7.14239L12.3714 6.86458L10.1836 7.15975V12.1256M3.72461 3.54825L5.07892 2.87109L5.21783 3.1489V16.119L5.07892 16.4142L3.72461 15.7371V3.54825Z" fill="#9D5025"/>
<path d="M7.82148 15.5113L5.07812 16.3969V2.87109L7.82148 3.75661V15.5113Z" fill="#F68536"/>
<path d="M6.76172 17.2301L8.91473 18.3239L9.14045 18.0635V1.27347L8.91473 0.960938L6.76172 2.05481V17.2301ZM14.0715 6.48237L15.1828 6.34346L15.2696 6.48237V12.8199L15.1828 12.9761L14.0715 12.8372V6.48237Z" fill="#9D5025"/>
<path d="M12.3711 6.86475V12.4383L14.663 9.64282L12.3711 6.86475Z" fill="#F68536"/>
<path d="M15.1841 4.10364L8.91602 0.960938V18.3239L16.1043 14.7298V4.55507L15.1841 4.10364ZM15.1841 12.9761L11.0517 14.2089V5.07596L15.1841 6.30874V12.9761Z" fill="#F68536"/>
</g>
<defs>
<clipPath id="clip0_608_138360">
<rect width="17.363" height="17.363" fill="white" transform="translate(0.234375 0.960938)"/>
</clipPath>
</defs>
</svg>
