<svg width="18" height="18" viewBox="0 0 18 18" fill="none" xmlns="http://www.w3.org/2000/svg">
<g clip-path="url(#clip0_606_138357)">
<path d="M14.2388 7.52304C14.3642 9.20863 12.0696 10.8158 9.11585 11.1085C6.16206 11.4014 3.66335 10.2718 3.54007 8.586C3.41454 6.8978 5.70906 5.29328 8.66285 5.00054C11.6168 4.7052 14.1153 5.83483 14.2388 7.52304Z" fill="#BBE6FB"/>
<path opacity="0.35" d="M8.74952 5.19747C7.62231 5.17524 6.30394 5.69457 5.32137 6.17934C5.21677 6.52907 5.16378 6.8922 5.16406 7.25724C5.16406 9.25797 6.725 10.8797 8.65159 10.8797C10.5784 10.8797 12.1391 9.25797 12.1391 7.25724C12.1399 6.64834 11.9917 6.04849 11.7075 5.51C10.9227 5.36971 9.84252 5.21709 8.74952 5.19747Z" fill="white"/>
<path d="M8.65095 5.19645C8.02797 5.15201 6.95181 5.52861 6.05449 5.90504C5.91349 6.29142 5.84149 6.69959 5.8418 7.1109C5.8418 8.86317 7.21556 10.2855 8.66797 10.2855C10.1119 10.2855 11.3879 8.86317 11.4941 7.1109C11.5282 6.54 11.3582 6.00349 11.1243 5.54094C10.1971 5.35133 9.21022 5.23587 8.65095 5.19645Z" fill="white"/>
<path d="M7.05135 6.87995C7.12775 6.68306 7.24478 6.58721 7.35538 6.42227C7.3427 6.38285 7.31492 6.25489 7.31492 6.21061C7.31492 6.01371 7.4533 5.8538 7.62329 5.8538C7.66374 5.8538 7.70212 5.8637 7.73615 5.87846C8.24645 5.42806 8.91857 5.23116 9.59468 5.40584C9.65632 5.4232 9.71588 5.44039 9.77543 5.46244C9.10765 5.35427 8.35496 5.62982 7.84241 6.1073C7.85734 6.14897 7.90196 6.27225 7.90196 6.32139C7.90196 6.51828 7.79136 6.56742 7.6212 6.56742C7.58301 6.56742 7.54481 6.56013 7.5106 6.54294C7.39583 6.72247 7.25328 7.06452 7.18314 7.27861C7.46615 7.57152 7.72122 7.67744 8.05511 7.82259C8.05511 7.80523 8.06552 7.78804 8.06552 7.76842C8.06552 7.17287 8.5187 6.69052 9.03108 6.69052C9.49259 6.69052 9.87318 7.07685 9.94784 7.58645C10.1774 7.41647 10.3986 7.2885 10.5686 7.03761C10.5283 6.98101 10.4857 6.82335 10.4857 6.74713C10.4857 6.56742 10.6111 6.42244 10.7665 6.42244C10.7877 6.42244 10.8089 6.4247 10.8302 6.43216C10.917 6.22472 10.9812 6.00852 11.0216 5.7873C10.2177 5.09834 8.66333 5.19175 8.66333 5.19175C8.66333 5.19175 7.42552 5.11796 6.58984 5.59058C6.65148 6.06059 6.81313 6.50595 7.05135 6.87995Z" fill="#373535"/>
<path d="M10.8911 6.61363C10.9484 6.67266 10.9782 6.72423 11.0038 6.77597C11.0781 6.93345 10.9272 7.07635 10.7741 7.07635C10.7591 7.07635 10.7421 7.07374 10.7272 7.07114C10.5529 7.38628 10.2488 7.78997 9.97657 7.99416C10.3912 8.07281 10.7846 8.26484 11.0951 8.56262C11.3226 8.0926 11.497 7.41093 11.497 6.835C11.497 6.3945 11.3292 6.07207 11.076 5.83594C11.0633 6.06964 10.9548 6.39937 10.8911 6.61363ZM7.51902 9.59502C7.65723 9.15209 7.99754 8.81004 8.32067 8.50723C8.27396 8.43344 8.20381 8.24644 8.17395 8.16032C7.78068 8.02246 7.43394 7.7641 7.16394 7.41944L7.15752 7.44896C7.10812 7.70764 7.09666 7.97213 7.12349 8.23411C7.31066 8.27353 7.45304 8.46539 7.45304 8.69423C7.45304 8.82966 7.35112 9.02656 7.27021 9.11268C7.35528 9.33406 7.41484 9.43737 7.51902 9.59502Z" fill="#373535"/>
<path d="M7.49184 9.96732C7.32585 9.77772 7.21317 9.39868 7.10465 9.15994C7.08555 9.16255 7.06437 9.16498 7.04301 9.16498C6.81972 9.16498 6.58376 8.94846 6.63689 8.69496C6.66676 8.55467 6.74975 8.46351 6.8857 8.38729C6.85601 8.09941 6.8475 7.68357 6.9048 7.38319C6.92182 7.29707 6.95585 7.25765 6.97929 7.17657C6.73273 6.75812 6.573 6.20945 6.573 5.66304C6.573 5.64342 6.573 5.62362 6.57525 5.604C6.15854 5.84761 5.84375 6.22907 5.84375 6.82948C5.84375 8.15845 6.50511 9.46518 7.48976 9.97461C7.48976 9.97461 7.49184 9.96993 7.49184 9.96732ZM9.91311 8.12858C9.78549 8.54686 9.44084 8.84706 9.03698 8.84706C8.81994 8.84706 8.62026 8.76094 8.46278 8.61579C8.1374 8.90853 7.84171 9.42542 7.69082 9.87321C7.75889 9.9569 7.80559 10.026 7.88008 10.1022C8.10754 10.171 8.42233 10.1022 8.66905 10.1022C9.66222 10.1022 10.5425 9.5902 11.0466 8.69444C10.7106 8.42618 10.3149 8.17043 9.91311 8.12858Z" fill="#373535"/>
<path d="M7.02557 7.03769C7.09882 6.84664 7.1944 6.66492 7.31032 6.49631C7.29739 6.45573 7.29094 6.41336 7.29122 6.37078C7.29122 6.17388 7.42943 6.01397 7.59959 6.01397C7.64005 6.01397 7.67824 6.02369 7.71245 6.03845C8.22275 5.58823 8.89469 5.39133 9.57098 5.56617C9.63262 5.58319 9.69218 5.60055 9.75156 5.6226C9.08395 5.51426 8.39499 5.753 7.88243 6.23031C7.89737 6.27233 7.90587 6.31903 7.90587 6.36834C7.90587 6.56507 7.76766 6.72515 7.59751 6.72515C7.55931 6.72515 7.52094 6.71769 7.4869 6.7005C7.36866 6.88525 7.27504 7.08464 7.2084 7.29362C7.45079 7.59625 7.75065 7.83743 8.08228 7.98015C8.08228 7.96296 8.0802 7.94334 8.0802 7.92598C8.0802 7.33043 8.49691 6.85069 9.00946 6.85069C9.47097 6.85069 9.85157 7.23701 9.92623 7.74644C10.1558 7.57663 10.36 7.36012 10.5299 7.10905C10.4877 7.04942 10.4654 6.97795 10.4662 6.90486C10.4662 6.72515 10.5918 6.58 10.747 6.58C10.7682 6.58 10.7895 6.58243 10.8107 6.58972C10.8975 6.38234 10.9616 6.16619 11.002 5.94503C10.1981 5.2559 8.6438 5.34948 8.6438 5.34948C8.6438 5.34948 7.40617 5.27569 6.57031 5.74814C6.6245 6.20642 6.78012 6.6469 7.02557 7.03769Z" fill="#1287B1"/>
<path d="M10.9353 6.66541C10.9928 6.72444 11.0291 6.81073 11.0291 6.90415C11.0291 7.08385 10.9035 7.22901 10.7483 7.22901C10.7334 7.22901 10.7164 7.22658 10.7014 7.22415C10.5271 7.53911 10.2974 7.80737 10.0251 8.01156C10.425 8.08292 10.8035 8.27982 11.114 8.57759C11.3414 8.10757 11.4713 7.56359 11.4713 6.98784C11.4713 6.54734 11.3032 6.22491 11.0503 5.98877C11.0397 6.21816 11.0011 6.44541 10.9353 6.66541ZM7.56168 9.70184C7.69989 9.25874 7.9402 8.86269 8.2635 8.55988C8.21603 8.48334 8.17752 8.40161 8.14873 8.31628C7.75528 8.17842 7.40854 7.92005 7.13855 7.57557L7.13212 7.60509C7.08274 7.86371 7.07127 8.12814 7.09809 8.39007C7.28526 8.42948 7.42781 8.62152 7.42781 8.85019C7.42781 8.98562 7.37677 9.10872 7.29811 9.19484C7.3678 9.37269 7.45615 9.54264 7.56168 9.70184Z" fill="#1287B1"/>
<path d="M7.49167 9.96301C7.32324 9.76899 7.18488 9.5508 7.08121 9.31571C7.06079 9.31864 7.0402 9.32027 7.01957 9.32058C6.79629 9.32058 6.61345 9.11153 6.61345 8.85056C6.61345 8.66599 6.70704 8.50365 6.84317 8.42968C6.81152 8.13334 6.82439 7.83393 6.88136 7.54139C6.89838 7.45527 6.91748 7.37158 6.94092 7.29032C6.69437 6.87187 6.54973 6.36488 6.54973 5.82124C6.54973 5.80145 6.54973 5.78183 6.55181 5.76221C6.1351 6.00321 5.82031 6.38727 5.82031 6.98769C5.82031 8.31665 6.50719 9.46087 7.49167 9.97273C7.48959 9.9703 7.48959 9.96544 7.49167 9.96301ZM9.88776 8.28401C9.76015 8.70245 9.41566 9.00249 9.01163 9.00249C8.79459 9.00249 8.59492 8.91637 8.43743 8.77121C8.11205 9.06412 7.8655 9.46521 7.71444 9.91317C7.7825 9.99669 7.85473 10.0755 7.92922 10.1517C8.15668 10.2207 8.39698 10.2577 8.64371 10.2577C9.63687 10.2577 10.5109 9.66454 11.0148 8.76878C10.6788 8.50052 10.2918 8.32585 9.88776 8.28401Z" fill="#1287B1"/>
<path d="M9.92078 8.00666L10.7799 7.77053L9.91662 7.71879L10.6184 7.09858L9.82095 7.42848L10.3632 6.55981L9.61467 7.13556L9.87616 6.11913L9.36378 6.95603L9.35301 5.89776L9.01496 6.84022L8.7342 5.88525L8.74913 7.01003L8.2621 6.0035L8.52584 7.0741L7.73687 6.40962L8.35568 7.31023L7.37537 6.89179L8.14941 7.55401L7.15625 7.58839L8.17077 7.89103L7.15625 8.14453L8.15809 8.22821L7.31373 8.85571L8.18362 8.49161L7.57939 9.37747L8.34301 8.66628L8.06867 9.85495L8.65763 8.88766L8.57481 10.0295L8.9087 8.99583L9.19345 10.0836L9.26377 8.9934L9.6869 9.92371L9.43809 8.85797L10.2121 9.55214L9.71243 8.66854L10.561 9.05244L9.91228 8.31416L10.7822 8.39299L9.92096 8.00649L9.92078 8.00666Z" fill="white"/>
<path opacity="0.35" d="M0.771484 9.91082C3.43618 6.82507 5.56488 5.87254 7.4979 5.4395C7.75314 5.3829 7.80193 4.73561 7.80193 4.73561C7.80193 4.73561 7.83804 5.21066 8.01671 5.27456C8.19537 5.33619 8.42717 4.52899 8.42717 4.52899C8.42717 4.52899 8.21239 5.25251 8.42717 5.29435C8.64195 5.33602 9.0354 4.59045 9.0354 4.59045C9.0354 4.59045 8.87375 5.23289 8.98226 5.27456C9.08853 5.3164 9.62643 4.34199 9.62643 4.34199C9.62643 4.34199 9.30539 4.98425 9.60959 5.04571C9.91362 5.10735 10.3579 4.60764 10.3579 4.60764C10.3579 4.60764 10.0093 5.06551 10.1645 5.1294C10.826 5.39766 11.3619 4.40346 11.3619 4.40346C11.3619 4.40346 11.2386 4.83909 10.9153 5.3164C11.6128 5.52319 12.1316 4.30761 12.1316 4.30761L11.6128 5.52319C11.8807 5.68554 12.9525 4.2583 12.9525 4.2583C12.9525 4.2583 12.3974 5.37561 12.0763 5.60445C12.255 5.7694 12.8994 5.10735 12.8994 5.10735C12.8994 5.10735 12.3804 5.85292 12.5781 5.89476C12.8653 6.16302 13.9201 4.50677 13.9201 4.50677C13.9201 4.50677 13.5097 5.47892 12.9014 6.24671C13.4097 6.54188 14.6728 4.65209 14.6728 4.65209C14.6728 4.65209 14.6367 5.25251 13.7244 6.20486C14.4051 6.10155 15.281 4.61025 15.281 4.61025C15.281 4.61025 14.9598 5.72738 14.1901 6.51497C14.8579 6.43371 15.9254 4.52656 15.9254 4.52656C15.9254 4.52656 15.5149 5.85049 14.6728 6.61828C15.6023 6.85702 16.9439 5.25251 16.9439 5.25251C16.9439 5.25251 16.4166 6.39186 15.7276 6.85702C16.4975 7.19907 17.5523 5.79145 17.5523 5.79145C17.5523 5.79145 16.4975 7.67638 14.8154 7.59251C14.2646 7.56543 12.5952 5.65567 9.01838 5.81333C4.2953 6.01769 3.2938 8.33565 0.771484 9.91082Z" fill="#373535"/>
<path d="M0.880859 9.67631C3.54556 6.59282 5.67426 5.64046 7.60728 5.20483C7.86251 5.14822 7.9113 4.50093 7.9113 4.50093C7.9113 4.50093 7.94742 4.97841 8.12608 5.04005C8.30475 5.10152 8.53654 4.29431 8.53654 4.29431C8.53654 4.29431 8.32176 5.01783 8.53654 5.05967C8.75132 5.10134 9.14477 4.35578 9.14477 4.35578C9.14477 4.35578 8.98312 4.99821 9.09164 5.03988C9.1979 5.08172 9.73581 4.10731 9.73581 4.10731C9.73581 4.10731 9.41476 4.74957 9.71896 4.81103C10.023 4.87267 10.4673 4.37296 10.4673 4.37296C10.4673 4.37296 10.1187 4.83083 10.2739 4.89472C10.9354 5.16298 11.4712 4.16895 11.4712 4.16895C11.4712 4.16895 11.348 4.60441 11.0247 5.08172C11.7221 5.28851 12.2409 4.07293 12.2409 4.07293L11.7221 5.28834C11.99 5.45329 13.0639 4.02588 13.0639 4.02588C13.0639 4.02588 12.509 5.14319 12.1878 5.37203C12.3665 5.53698 13.0108 4.87493 13.0108 4.87493C13.0108 4.87493 12.492 5.6205 12.6896 5.66234C12.9768 5.9306 14.0316 4.27434 14.0316 4.27434C14.0316 4.27434 13.619 5.24667 13.0129 6.01429C13.5211 6.30963 14.7844 4.41967 14.7844 4.41967C14.7844 4.41967 14.7482 5.02008 13.8359 5.97244C14.5165 5.86913 15.3925 4.37783 15.3925 4.37783C15.3925 4.37783 15.0714 5.49513 14.3016 6.28255C14.9694 6.20129 16.037 4.29414 16.037 4.29414C16.037 4.29414 15.6265 5.61806 14.7844 6.38586C15.7137 6.6246 17.0555 5.02008 17.0555 5.02008C17.0555 5.02008 16.5282 6.15944 15.8391 6.6246C16.6089 6.96682 17.6637 5.5592 17.6637 5.5592C17.6637 5.5592 16.6089 7.4443 14.9268 7.36061C14.3761 7.33353 12.7068 5.42395 9.12984 5.58143C4.40468 5.78319 3.40301 8.10114 0.880859 9.67631Z" fill="#373535"/>
<path opacity="0.35" d="M0.701172 10.2477C2.10896 11.0648 3.39764 10.1246 5.0223 10.6538C6.25576 11.0573 7.75922 11.552 9.79851 11.2099C11.838 10.8679 13.5817 9.84415 14.4132 8.01062C14.6726 7.19369 15.7274 8.19779 15.7274 8.19779C15.7274 8.19779 14.9576 7.82622 14.9767 8.00089C14.9937 8.17556 16.1313 8.7883 16.1313 8.7883C16.1313 8.7883 15.1022 8.41674 15.1659 8.69489C15.2298 8.97287 16.4546 10.0926 16.4546 10.0926C16.4546 10.0926 15.0682 8.87199 14.9511 9.03694C14.8343 9.20189 15.5424 9.87609 15.5424 9.87609C15.5424 9.87609 14.3707 9.03694 13.9582 9.28541C13.6625 9.46251 15.1744 10.6119 15.1744 10.6119C15.1744 10.6119 14.1899 9.74327 13.9582 9.96951C13.7264 10.1987 15.0682 12.0614 15.0682 12.0614C15.0682 12.0614 13.5477 10.1567 13.3944 10.2501C13.2416 10.3437 13.8156 11.2542 13.8156 11.2542C13.8156 11.2542 13.065 10.3018 12.8587 10.4668C12.6523 10.6317 13.9326 13.1073 13.9326 13.1073C13.9326 13.1073 12.546 10.5725 11.9741 10.9958C12.8735 13.2772 12.5375 13.6044 12.5375 13.6044C12.5375 13.6044 12.4227 11.2764 11.3042 11.3379C10.7406 11.3698 11.5721 13.0777 11.5721 13.0777C11.5721 13.0777 10.8064 11.5176 10.2961 11.5495C11.2362 13.6067 10.9 14.4436 10.9 14.4436C10.9 14.4436 11.0554 12.6865 9.78149 11.707C10.2642 12.2041 9.47746 14.4436 9.47746 14.4436C9.47746 14.4436 10.1685 11.1434 8.96699 11.7735C8.77774 11.872 8.95432 13.4199 8.95432 13.4199C8.95432 13.4199 8.71193 11.6504 8.35026 11.744C8.13982 11.798 7.00845 14.1974 7.00845 14.1974C7.00845 14.1974 7.93355 11.6037 7.65279 11.7145C7.44652 11.7931 7.06158 12.8637 7.06158 12.8637C7.06158 12.8637 7.24875 11.8081 7.06158 11.7464C6.87458 11.685 5.82829 12.8637 5.82829 12.8637C5.82829 12.8637 6.60649 11.8081 6.47245 11.5914C6.26844 11.2615 6.03022 11.2469 5.74738 11.3749C5.33483 11.5594 4.78199 12.4305 4.78199 12.4305C4.78199 12.4305 5.33483 11.5495 5.2369 11.2198C5.08185 10.6906 3.49331 12.2435 3.49331 12.2435C3.49331 12.2435 4.43317 11.2198 4.21839 11.0007C4.00361 10.7842 2.83838 10.8507 2.47463 10.8507C1.39864 10.8359 1.02864 10.5454 0.701172 10.2477Z" fill="#373535"/>
<path d="M0.648438 10.0612C2.05623 10.8782 3.34491 9.93797 4.96956 10.4672C6.20303 10.8709 7.70649 11.3656 9.74577 11.0233C11.7852 10.6813 13.529 9.65756 14.3605 7.8242C14.6199 7.0071 15.6747 8.0112 15.6747 8.0112C15.6747 8.0112 14.9048 7.63964 14.9241 7.81431C14.9411 7.98898 16.0787 8.60189 16.0787 8.60189C16.0787 8.60189 15.0495 8.23032 15.1134 8.50831C15.175 8.78889 16.402 9.90603 16.402 9.90603C16.402 9.90603 15.0154 8.68541 14.8984 8.85036C14.7816 9.0153 15.4896 9.68951 15.4896 9.68951C15.4896 9.68951 14.318 8.85036 13.9054 9.09899C13.6097 9.2761 15.1217 10.4255 15.1217 10.4255C15.1217 10.4255 14.1372 9.55668 13.9054 9.7831C13.6736 10.0119 15.0154 11.8748 15.0154 11.8748C15.0154 11.8748 13.495 9.97009 13.3418 10.0637C13.1908 10.1571 13.7629 11.0676 13.7629 11.0676C13.7629 11.0676 13.0123 10.1152 12.806 10.2802C12.5997 10.4451 13.8799 12.9208 13.8799 12.9208C13.8799 12.9208 12.4933 10.3859 11.9214 10.8094C12.8208 13.0906 12.485 13.4179 12.485 13.4179C12.485 13.4179 12.37 11.0898 11.2515 11.1513C10.6879 11.1834 11.5194 12.8912 11.5194 12.8912C11.5194 12.8912 10.7537 11.331 10.2434 11.363C11.1834 13.4205 10.8475 14.257 10.8475 14.257C10.8475 14.257 11.0027 12.4999 9.72876 11.5206C10.2114 12.0177 9.4249 14.257 9.4249 14.257C9.4249 14.257 10.1159 10.957 8.91443 11.5869C8.72292 11.6805 8.8995 13.2284 8.8995 13.2284C8.8995 13.2284 8.65711 11.4591 8.29561 11.5526C8.085 11.6067 6.95363 14.0059 6.95363 14.0059C6.95363 14.0059 7.87873 11.4123 7.59797 11.523C7.3917 11.6017 7.00693 12.6723 7.00693 12.6723C7.00693 12.6723 7.19393 11.6166 7.00693 11.555C6.81976 11.4933 5.77347 12.6723 5.77347 12.6723C5.77347 12.6723 6.55168 11.6166 6.41764 11.3999C6.21362 11.07 5.9754 11.0555 5.69256 11.1834C5.28001 11.368 4.72718 12.2391 4.72718 12.2391C4.72718 12.2391 5.28001 11.3581 5.18226 11.0284C5.02703 10.4991 3.43849 12.0521 3.43849 12.0521C3.43849 12.0521 4.37835 11.0284 4.16357 10.8092C3.94879 10.5927 2.78356 10.6592 2.41981 10.6568C1.34591 10.6493 0.97382 10.3589 0.648438 10.0612Z" fill="#373535"/>
</g>
<defs>
<clipPath id="clip0_606_138357">
<rect width="17.363" height="17.363" fill="white" transform="translate(0.474609 0.553223)"/>
</clipPath>
</defs>
</svg>
