<svg width="18" height="18" viewBox="0 0 18 18" fill="none" xmlns="http://www.w3.org/2000/svg">
<g clip-path="url(#clip0_608_138345)">
<path d="M15.7899 6.31811C15.5815 6.17921 15.3558 6.04031 15.1301 5.91877C14.9565 5.83195 14.7655 5.72777 14.5745 5.64096C14.071 5.41524 13.5327 5.22425 12.9424 5.05062C13.0118 5.2937 13.0813 5.55414 13.1333 5.83195C13.1854 6.0924 13.2375 6.35284 13.2723 6.63065C13.5848 6.73483 13.8973 6.85637 14.1925 6.97791C14.3314 7.03 14.4529 7.09945 14.5918 7.1689L14.8002 7.27308C15.0259 7.39462 15.2343 7.51616 15.4253 7.65506C16.1198 8.14123 16.5539 8.67948 16.6928 9.2351C16.5539 9.77335 16.1198 10.329 15.4253 10.8151C15.4947 11.0061 15.5642 11.1971 15.6163 11.3881C15.6857 11.6486 15.7552 11.909 15.8072 12.1521C16.1719 11.909 16.4844 11.6312 16.7449 11.336C17.1963 10.7978 17.4567 10.2074 17.4567 9.59972V8.87047C17.4567 8.24541 17.1963 7.67243 16.7275 7.13417C16.467 6.839 16.1545 6.57856 15.7899 6.31811ZM6.17079 13.7321C6.41388 13.7668 6.63959 13.8016 6.86531 13.8363C6.57014 13.5932 6.27497 13.3501 5.9798 13.0723C6.03189 13.298 6.10134 13.5238 6.17079 13.7321ZM14.3488 11.909C14.2967 11.7701 14.2619 11.6312 14.1925 11.4923C13.8973 11.6138 13.6021 11.7354 13.2723 11.8395C13.0639 11.909 12.8382 11.9784 12.6125 12.0305C12.5777 12.0305 12.543 12.0479 12.5256 12.0479C12.2826 12.1174 12.0221 12.1694 11.7617 12.2215C11.6228 12.2563 11.4839 12.2736 11.345 12.291C10.9456 12.3604 10.5289 12.4125 10.1122 12.4472C9.23383 12.5166 8.35137 12.5166 7.47302 12.4472C7.76819 12.7077 8.09808 12.9681 8.42798 13.2112C8.54952 13.298 8.6537 13.3675 8.77524 13.4543C9.00096 13.6106 9.20932 13.7495 9.43503 13.871C9.46976 13.8884 9.48712 13.9057 9.52185 13.9231C9.9212 13.9057 10.3032 13.871 10.6852 13.8363C10.9109 13.8189 11.154 13.7842 11.3797 13.7495C11.6575 13.7147 11.9179 13.6627 12.1784 13.6106C12.4388 13.5585 12.6993 13.489 12.9597 13.4196C13.5501 13.2633 14.1057 13.055 14.5918 12.8292C14.5571 12.6035 14.4877 12.3604 14.4182 12.1174C14.4008 12.0479 14.3661 11.9784 14.3488 11.909ZM8.74051 5.03325C8.5148 4.87699 8.30644 4.73808 8.08072 4.61654C8.046 4.59918 8.02863 4.58182 7.99391 4.56445C7.59456 4.58182 7.21257 4.61654 6.83059 4.65127C6.60487 4.66863 6.36179 4.70336 6.13607 4.73808C5.85826 4.77281 5.59782 4.8249 5.33737 4.87699C5.07693 4.92908 4.81648 4.99853 4.55604 5.06798C3.9657 5.22425 3.41008 5.4326 2.92392 5.65832C3.01073 5.88404 3.06282 6.10976 3.13227 6.3702C3.14963 6.43966 3.18436 6.50911 3.20172 6.57856C3.25381 6.71746 3.28854 6.85637 3.35799 6.99527C3.65316 6.87373 3.94833 6.75219 4.27823 6.64801C4.48658 6.57856 4.7123 6.50911 4.93802 6.45702C4.97275 6.45702 5.00747 6.43966 5.02484 6.43966C5.26792 6.3702 5.52836 6.31811 5.78881 6.26603C5.92771 6.2313 6.06662 6.21394 6.20552 6.19657C6.60487 6.12712 7.02158 6.07503 7.43829 6.04031C8.31665 5.97094 9.19911 5.97094 10.0775 6.04031C9.74757 5.7625 9.43503 5.50205 9.08777 5.27634C8.96623 5.18952 8.86206 5.12007 8.74051 5.03325ZM10.6852 4.6339C10.9803 4.87699 11.2755 5.12007 11.5707 5.39788C11.5186 5.17216 11.4491 4.94644 11.3797 4.73808C11.1366 4.70336 10.9109 4.66863 10.6852 4.6339ZM4.27823 11.8395C3.9657 11.7354 3.65316 11.6138 3.35799 11.4923C3.21909 11.4402 3.09755 11.3707 2.95864 11.3013L2.75029 11.1971C2.52457 11.0756 2.31621 10.954 2.12522 10.8151C1.4307 10.329 0.996625 9.77335 0.857721 9.2351C0.996625 8.69684 1.4307 8.14123 2.12522 7.65506C2.05577 7.46407 1.98632 7.27308 1.93423 7.08209C1.84741 6.82164 1.79532 6.5612 1.74323 6.31811C1.37861 6.5612 1.06608 6.839 0.805632 7.13417C0.354195 7.67243 0.09375 8.26277 0.09375 8.87047V9.59972C0.09375 10.2248 0.354195 10.7978 0.822995 11.336C1.08344 11.6312 1.39597 11.8916 1.7606 12.1521C1.96895 12.291 2.19467 12.4299 2.42039 12.5514C2.59402 12.6382 2.78501 12.7424 2.97601 12.8292C3.47953 13.055 4.01778 13.2459 4.60813 13.4196C4.53867 13.1765 4.46922 12.916 4.41713 12.6382C4.36504 12.3778 4.31295 12.1174 4.27823 11.8395Z" fill="#2C567D"/>
<path d="M10.1297 14.2529C10.3033 14.1139 10.4943 13.975 10.6853 13.8361C10.3033 13.8709 9.92135 13.9056 9.522 13.923C9.73035 14.0445 9.92135 14.1487 10.1297 14.2529ZM12.9251 2.13349C12.5432 2.11613 12.1264 2.13349 11.6924 2.22031C11.4493 2.2724 11.1888 2.32448 10.9284 2.4113C10.7374 2.46339 10.5464 2.53284 10.3554 2.60229C9.8519 2.79329 9.31364 3.05373 8.77539 3.3489C9.00111 3.47044 9.22683 3.60935 9.45255 3.76561C9.67827 3.90452 9.90398 4.06078 10.1297 4.23441C10.4249 4.07815 10.72 3.9566 11.0152 3.83506L11.4319 3.6788C11.5014 3.66143 11.5708 3.62671 11.6403 3.60935C11.8834 3.53989 12.1264 3.47044 12.3522 3.43572C13.1856 3.27945 13.8801 3.36626 14.3663 3.64407L15.165 3.3489L14.6614 2.84537C14.2274 2.4113 13.6197 2.16822 12.9251 2.13349Z" fill="#F2B462"/>
<path d="M15.1651 3.36613C15.0782 3.27931 14.9914 3.20986 14.8872 3.12305L14.3664 3.64394C14.6615 4.1301 14.731 4.82462 14.5747 5.65804C14.7657 5.74486 14.9567 5.83167 15.1303 5.93585C15.3734 6.05739 15.5991 6.19629 15.7901 6.3352C15.8769 5.90112 15.8943 5.48441 15.8769 5.10243C15.8248 4.39054 15.5991 3.8002 15.1651 3.36613ZM14.5921 7.16862C14.4705 7.09917 14.3316 7.04708 14.1927 6.97763C14.0712 7.2728 13.9496 7.56797 13.7934 7.86314C13.6892 8.0715 13.585 8.26249 13.4635 8.47084C13.4461 8.50557 13.4288 8.52293 13.4114 8.55766C13.2725 8.78338 13.1336 8.99173 12.9947 9.21745C12.9079 9.33899 12.8384 9.44317 12.7516 9.56471C12.5085 9.89461 12.2481 10.2245 11.9876 10.5544C11.7098 10.8843 11.3973 11.2142 11.0848 11.5267C10.7722 11.8393 10.4423 12.1518 10.1124 12.4296C10.5291 12.4122 10.9285 12.3602 11.3452 12.2907C11.4841 12.2733 11.623 12.2386 11.7619 12.2212C12.0224 12.1692 12.2828 12.1171 12.5259 12.0476C12.5606 12.0476 12.5953 12.0303 12.6127 12.0303C12.8731 11.7351 13.1336 11.4399 13.3767 11.1447C13.5156 10.9538 13.6718 10.7801 13.7934 10.5891L14.2622 9.91197C14.4184 9.68625 14.5574 9.46054 14.6789 9.23482C14.9914 8.69656 15.2345 8.17567 15.4255 7.65479C15.2345 7.51588 15.0262 7.39434 14.8004 7.2728L14.5921 7.16862ZM6.86555 4.63363C7.24754 4.5989 7.62952 4.56417 8.02887 4.54681C7.82051 4.42527 7.62952 4.32109 7.42117 4.21691C7.23017 4.35582 7.05654 4.49472 6.86555 4.63363ZM7.42117 14.218C7.126 14.3743 6.83082 14.4958 6.53565 14.6173L6.11894 14.7736C6.04949 14.791 5.98004 14.8257 5.91059 14.8431C5.66751 14.9125 5.42442 14.982 5.1987 15.0167C4.36528 15.1903 3.67076 15.1209 3.1846 14.8257C2.88943 14.3395 2.81998 13.645 2.97624 12.8116C2.78525 12.7248 2.59426 12.638 2.42063 12.5338C2.17755 12.4122 1.95183 12.2733 1.76083 12.1344C1.67402 12.5685 1.65666 12.9852 1.67402 13.3672C1.72611 14.0791 1.95183 14.6694 2.3859 15.1035L2.88943 15.607C3.3235 16.0411 3.93121 16.2842 4.62573 16.3189C5.00771 16.3363 5.42442 16.3189 5.8585 16.2321C6.10158 16.18 6.36202 16.1279 6.62247 16.0411C6.81346 15.989 7.00446 15.9196 7.19545 15.8501C7.69897 15.6591 8.23723 15.3987 8.77548 15.1035C8.54976 14.982 8.32404 14.8431 8.09832 14.6868C7.8726 14.5479 7.64688 14.3916 7.42117 14.218ZM5.80641 6.26575C5.54596 6.31784 5.28552 6.36992 5.04244 6.43938C5.00771 6.43938 4.97299 6.45674 4.95562 6.45674C4.69518 6.75191 4.43473 7.04708 4.19165 7.34225C4.05275 7.53324 3.89648 7.70687 3.77494 7.89787L3.30614 8.57502C3.14987 8.80074 3.01097 9.02646 2.88943 9.25218C2.57689 9.79043 2.33381 10.3113 2.14282 10.8322C2.31645 10.9364 2.52481 11.0579 2.76789 11.1968L2.97624 11.301C3.09778 11.3705 3.23669 11.4226 3.37559 11.492C3.49713 11.1968 3.61867 10.9017 3.77494 10.6065C3.87912 10.3981 3.9833 10.2071 4.10484 9.99879C4.1222 9.96406 4.13956 9.9467 4.15693 9.91197C4.29583 9.68625 4.43473 9.4779 4.57364 9.25218C4.66045 9.13064 4.7299 9.02646 4.81672 8.90492C5.0598 8.57502 5.32025 8.24513 5.58069 7.91523C5.8585 7.58533 6.17103 7.25544 6.48357 6.9429C6.7961 6.63037 7.126 6.31784 7.45589 6.04003C7.03918 6.07475 6.62247 6.12684 6.22312 6.19629C6.08422 6.21366 5.94531 6.24838 5.80641 6.26575Z" fill="#F2B462"/>
<path d="M3.75779 10.5893C3.8967 10.7629 4.0356 10.9539 4.1745 11.1449C4.13978 10.7629 4.10505 10.3809 4.08769 9.98156C3.96615 10.1899 3.86197 10.3809 3.75779 10.5893ZM4.6433 2.13349C3.93142 2.18558 3.34108 2.4113 2.90701 2.84537C2.82019 2.93219 2.75074 3.019 2.66392 3.12318C2.73338 3.019 2.82019 2.93219 2.90701 2.84537L2.40348 3.3489C1.96941 3.78298 1.72632 4.39068 1.6916 5.0852C1.67423 5.46718 1.6916 5.8839 1.77841 6.31797C1.8305 6.56105 1.88259 6.8215 1.96941 7.08194C2.02149 7.27293 2.09095 7.46393 2.1604 7.65492C2.35139 8.15845 2.61184 8.6967 2.90701 9.23495C3.02855 9.00923 3.16745 8.78351 3.32372 8.55779C3.46262 8.33208 3.61889 8.10636 3.79252 7.88064C3.63625 7.58547 3.51471 7.2903 3.39317 6.99513L3.2369 6.57842C3.21954 6.50896 3.18481 6.43951 3.16745 6.37006C3.098 6.12698 3.02855 5.8839 2.99382 5.65818C2.82019 4.82475 2.88964 4.13023 3.18481 3.64407C3.67098 3.3489 4.3655 3.27945 5.19892 3.43572C5.28573 3.24472 5.37255 3.05373 5.47673 2.8801C5.59827 2.63702 5.73717 2.4113 5.87608 2.22031C5.442 2.13349 5.02529 2.11613 4.6433 2.13349ZM13.4637 8.48834C13.5852 8.27999 13.6894 8.08899 13.7936 7.88064C13.6547 7.68965 13.5158 7.51602 13.3769 7.32502C13.4116 7.70701 13.4463 8.08899 13.4637 8.48834ZM11.7621 6.24852C11.71 5.98807 11.6579 5.72763 11.5885 5.48455C11.5885 5.44982 11.5711 5.4151 11.5711 5.39773C11.276 5.13729 10.9808 4.87684 10.6856 4.63376C10.4946 4.49486 10.321 4.33859 10.13 4.21705L9.45285 3.74825C9.22713 3.59198 9.00141 3.45308 8.77569 3.33154C8.23744 3.019 7.71655 2.77592 7.19566 2.58493C7.05676 2.77592 6.93522 2.98428 6.81368 3.21L6.7095 3.41835C6.64005 3.53989 6.58796 3.6788 6.51851 3.8177C6.81368 3.93924 7.10885 4.06078 7.40402 4.21705C7.61237 4.32123 7.80337 4.42541 8.01172 4.54695C8.04645 4.56431 8.06381 4.58167 8.09854 4.59904C8.32426 4.73794 8.53261 4.87684 8.75833 5.01575C8.87987 5.0852 8.98405 5.17201 9.10559 5.25883C9.43549 5.50191 9.76538 5.76236 10.0953 6.0228C10.4252 6.30061 10.7551 6.61314 11.0676 6.92567C11.3801 7.23821 11.6927 7.5681 11.9705 7.898C11.9358 7.48129 11.901 7.06458 11.8316 6.66523C11.8142 6.52633 11.7795 6.38742 11.7621 6.24852ZM9.53967 13.923C9.50494 13.9056 9.48758 13.8882 9.45285 13.8709C9.22713 13.732 9.01878 13.5931 8.79306 13.4542C8.67152 13.3673 8.56734 13.2979 8.4458 13.2111C8.1159 12.968 7.786 12.7075 7.45611 12.4471C7.12621 12.1693 6.79631 11.8568 6.48378 11.5442C6.17125 11.2317 5.85871 10.9018 5.58091 10.5719C5.59827 10.9886 5.65036 11.4053 5.71981 11.8047C5.73717 11.9436 5.7719 12.0825 5.78926 12.2214C5.84135 12.4818 5.89344 12.7423 5.96289 12.9854C5.96289 13.0201 5.98025 13.0548 5.98025 13.0722C6.27542 13.3326 6.5706 13.5931 6.86577 13.8361C7.05676 13.975 7.23039 14.1313 7.42138 14.2529L8.09854 14.7217C8.32426 14.8779 8.54998 15.0168 8.77569 15.1384C9.31395 15.4509 9.83484 15.694 10.3557 15.885C10.4946 15.694 10.6162 15.4856 10.7377 15.2599L10.8419 15.0515C10.9113 14.93 10.9634 14.7911 11.0329 14.6522C10.7377 14.5307 10.4425 14.4091 10.1474 14.2529C9.93901 14.1487 9.74802 14.0445 9.53967 13.923ZM15.5993 11.388C15.5473 11.197 15.4778 11.006 15.4084 10.815C15.2174 10.3115 14.9569 9.7732 14.6617 9.23495C14.5402 9.46067 14.4013 9.68639 14.245 9.91211C14.1061 10.1378 13.9499 10.3635 13.7762 10.5893C13.9325 10.8844 14.054 11.1796 14.1756 11.4748L14.3318 11.8915C14.3492 11.9609 14.3839 12.0304 14.4013 12.0998C14.4708 12.3429 14.5402 12.586 14.5749 12.8117C14.7312 13.6451 14.6444 14.3397 14.3666 14.8258C13.8804 15.121 13.1859 15.1905 12.3525 15.0342C12.2657 15.2252 12.1788 15.4162 12.0747 15.5898C11.9531 15.8329 11.8142 16.0586 11.6753 16.2496C12.1094 16.3364 12.5261 16.3538 12.9081 16.3364C13.62 16.3017 14.2103 16.0586 14.6617 15.6245L15.1653 15.121C15.5993 14.6869 15.8424 14.0792 15.8772 13.3847C15.8945 13.0027 15.8772 12.586 15.7903 12.1519C15.7382 11.9089 15.6862 11.6484 15.5993 11.388Z" fill="#59ADCC"/>
<path d="M6.17145 13.7317C6.102 13.5234 6.03254 13.2977 5.98046 13.0719C5.98046 13.0372 5.96309 13.0025 5.96309 12.9851C5.89364 12.742 5.84155 12.4816 5.78946 12.2211C5.75474 12.0822 5.73737 11.9433 5.72001 11.8044C5.65056 11.4051 5.59847 10.9884 5.56374 10.5717C5.49437 9.69331 5.49437 8.81085 5.56374 7.93249C5.3033 8.22766 5.04285 8.55756 4.79977 8.88745C4.71296 9.009 4.64351 9.11317 4.55669 9.23471C4.40042 9.46043 4.26152 9.66879 4.13998 9.89451C4.12262 9.92923 4.10525 9.9466 4.08789 9.98132C4.10525 10.3807 4.13998 10.7627 4.17471 11.1446C4.20943 11.3704 4.22679 11.6134 4.26152 11.8392C4.29625 12.117 4.34834 12.3774 4.40042 12.6379C4.45251 12.8983 4.52197 13.1587 4.59142 13.4192C4.74768 14.0095 4.95604 14.5651 5.18176 15.0513C5.40748 15.0166 5.65056 14.9471 5.89364 14.8777C5.96309 14.8603 6.03254 14.8256 6.102 14.8082C6.2409 14.7561 6.3798 14.7214 6.51871 14.652C6.39717 14.3568 6.27563 14.0616 6.17145 13.7317ZM12.6131 12.0302C12.8388 11.9781 13.0646 11.9086 13.2729 11.8392C13.3076 11.5961 13.3424 11.3704 13.3771 11.1446C13.134 11.4398 12.8909 11.735 12.6131 12.0302ZM4.17471 7.32479C4.41779 7.02961 4.66087 6.73444 4.93868 6.43927C4.71296 6.49136 4.48724 6.56081 4.27888 6.63027C4.22679 6.87335 4.20943 7.09907 4.17471 7.32479ZM13.2903 6.63027C13.2555 6.35246 13.2035 6.09201 13.1514 5.83157C13.0993 5.57112 13.0298 5.31068 12.9604 5.05023C12.8041 4.45989 12.5958 3.90428 12.37 3.41811C12.1443 3.45284 11.9012 3.52229 11.6582 3.59174C11.5887 3.60911 11.5192 3.64383 11.4498 3.6612C11.3109 3.71329 11.172 3.74801 11.0331 3.81746C11.1546 4.11263 11.2762 4.4078 11.3803 4.7377C11.4498 4.94606 11.5192 5.17178 11.5713 5.39749C11.5713 5.43222 11.5887 5.46695 11.5887 5.48431C11.6582 5.72739 11.7102 5.98784 11.7623 6.24828C11.7971 6.38718 11.8144 6.52609 11.8318 6.66499C11.9012 7.06434 11.9533 7.48105 11.988 7.89776C12.0574 8.77612 12.0574 9.65858 11.988 10.5369C12.2485 10.2418 12.5089 9.91187 12.752 9.58197C12.8388 9.46043 12.9083 9.35625 12.9951 9.23471C13.1514 9.009 13.2903 8.80064 13.4118 8.57492C13.4292 8.54019 13.4465 8.52283 13.4639 8.48811C13.4465 8.08876 13.4118 7.70677 13.3771 7.32479C13.3597 7.09907 13.325 6.85599 13.2903 6.63027ZM10.8595 1.2651C10.3386 0.813667 9.74822 0.553223 9.14052 0.553223H8.41127C7.78621 0.553223 7.21323 0.813667 6.67498 1.28247C6.3798 1.54291 6.11936 1.85545 5.85891 2.22007C5.72001 2.42842 5.58111 2.65414 5.45957 2.87986C5.37275 3.05349 5.26857 3.24448 5.18176 3.43548C4.95604 3.939 4.76505 4.47726 4.59142 5.0676C4.8345 4.99815 5.09494 4.92869 5.37275 4.87661C5.6332 4.82452 5.89364 4.77243 6.17145 4.7377C6.27563 4.42517 6.39717 4.11263 6.51871 3.81746C6.5708 3.67856 6.64025 3.55702 6.7097 3.41811L6.81388 3.20976C6.93542 2.98404 7.05696 2.77568 7.19586 2.58469C7.68203 1.89017 8.22028 1.4561 8.7759 1.31719C9.31415 1.4561 9.86976 1.89017 10.3559 2.58469C10.5469 2.51524 10.7379 2.44579 10.9289 2.3937L11.6755 2.20271C11.4324 1.83808 11.1546 1.52555 10.8595 1.2651ZM11.3803 13.7317C11.2762 14.0443 11.1546 14.3568 11.0331 14.652C10.981 14.7909 10.9115 14.9124 10.8421 15.0513L10.7379 15.2597C10.6164 15.4854 10.4948 15.6937 10.3559 15.8847C9.86976 16.5793 9.33151 17.0133 8.7759 17.1522C8.23764 17.0133 7.68203 16.5793 7.19586 15.8847C7.00487 15.9542 6.81388 16.0236 6.62289 16.0757L5.85891 16.2667C6.102 16.6313 6.3798 16.9439 6.67498 17.2043C7.21323 17.6558 7.80357 17.9162 8.41127 17.9162H9.14052C9.76559 17.9162 10.3386 17.6558 10.8768 17.187C11.172 16.9265 11.4324 16.614 11.6929 16.2494C11.8318 16.041 11.9707 15.8153 12.0922 15.5896C12.179 15.4159 12.2832 15.2249 12.37 15.0339C12.5958 14.5304 12.7867 13.9922 12.9604 13.4018L12.179 13.5928C11.9186 13.6449 11.6582 13.697 11.3803 13.7317Z" fill="#46AF77"/>
</g>
<defs>
<clipPath id="clip0_608_138345">
<rect width="17.363" height="17.363" fill="white" transform="translate(0.09375 0.553223)"/>
</clipPath>
</defs>
</svg>
