<svg width="18" height="18" viewBox="0 0 18 18" fill="none" xmlns="http://www.w3.org/2000/svg">
<g clip-path="url(#clip0_608_80822)">
<mask id="mask0_608_80822" style="mask-type:luminance" maskUnits="userSpaceOnUse" x="2" y="0" width="13" height="18">
<path fill-rule="evenodd" clip-rule="evenodd" d="M13.3377 3.96069C13.3204 3.82179 13.2162 3.70024 13.0773 3.66552C12.9384 3.61343 12.7821 3.66552 12.678 3.75233L10.6986 5.76644L9.11854 2.78001C9.04909 2.65847 8.92755 2.57165 8.78864 2.57165C8.64974 2.57165 8.51084 2.65847 8.45875 2.78001L7.5906 4.41213L5.42023 0.401278C5.2466 0.0713811 4.76043 0.158196 4.69098 0.522819L2.60742 13.8229L8.18094 16.9482C8.5282 17.1392 8.96227 17.1392 9.30953 16.9482L14.9351 13.8229L13.3377 3.96069Z" fill="white"/>
</mask>
<g mask="url(#mask0_608_80822)">
<path d="M2.61719 13.8126L4.70075 0.512565C4.75283 0.147942 5.25636 0.0611272 5.42999 0.391024L7.583 4.40187L8.43379 2.76975C8.50324 2.64821 8.62478 2.5614 8.78105 2.5614C8.91995 2.5614 9.05885 2.64821 9.12831 2.76975L14.9449 13.8126H2.61719Z" fill="#FFA000"/>
<path d="M9.82282 8.64184L7.583 4.40527L2.61719 13.816L9.82282 8.64184Z" fill="#F57C00"/>
<path d="M14.9351 13.8102L13.3377 3.96537C13.3204 3.82646 13.2162 3.70492 13.0773 3.6702C12.9384 3.61811 12.7821 3.6702 12.678 3.75701L2.60742 13.8275L8.18094 16.9529C8.5282 17.1439 8.96227 17.1439 9.30953 16.9529L14.9351 13.8102Z" fill="#FFCA28"/>
<path d="M13.3471 3.9678C13.3297 3.82889 13.2255 3.70735 13.0866 3.67263C12.9477 3.62054 12.7915 3.67263 12.6873 3.75944L10.6905 5.75619L9.11051 2.76975C9.04106 2.64821 8.91952 2.5614 8.78062 2.5614C8.64171 2.5614 8.50281 2.64821 8.45072 2.76975L7.59993 4.40187L5.4122 0.391024C5.23857 0.0611272 4.7524 0.147942 4.68295 0.512565L2.59939 13.8126H2.58203L2.59939 13.83L2.65148 13.8647L10.6558 5.86036L12.6526 3.86362C12.7567 3.75944 12.913 3.72472 13.0519 3.77681C13.1908 3.82889 13.295 3.93307 13.3124 4.07198L14.8924 13.83L14.9097 13.8126L13.3471 3.9678ZM2.63412 13.7952L4.70032 0.616743C4.7524 0.25212 5.25593 0.165305 5.42956 0.495202L7.58257 4.50605L8.43336 2.87393C8.50281 2.75239 8.62435 2.66557 8.78062 2.66557C8.91952 2.66557 9.05842 2.75239 9.12788 2.87393L10.6732 5.79091L2.63412 13.7952Z" fill="white" fill-opacity="0.2"/>
<path opacity="0.2" d="M9.3193 16.8336C8.97204 17.0246 8.53796 17.0246 8.1907 16.8336L2.63455 13.7256L2.61719 13.8124L8.1907 16.9377C8.53796 17.1287 8.97204 17.1287 9.3193 16.9377L14.9449 13.8124L14.9275 13.7256L9.3193 16.8336Z" fill="#A52714"/>
</g>
</g>
<defs>
<clipPath id="clip0_608_80822">
<rect width="17.363" height="17.363" fill="white" transform="translate(0.0917969 0.0224609)"/>
</clipPath>
</defs>
</svg>
