<svg width="19" height="18" viewBox="0 0 19 18" fill="none" xmlns="http://www.w3.org/2000/svg">
<g clip-path="url(#clip0_608_121428)">
<path d="M1.67578 3.80686C1.67578 3.05907 1.97284 2.3419 2.50161 1.81313C3.03038 1.28436 3.74754 0.987305 4.49534 0.987305H14.29C14.6603 0.987305 15.0269 1.06023 15.369 1.20193C15.7111 1.34363 16.0219 1.55131 16.2837 1.81313C16.5455 2.07495 16.7532 2.38578 16.8949 2.72786C17.0366 3.06995 17.1095 3.43659 17.1095 3.80686V13.6015C17.1095 13.9718 17.0366 14.3384 16.8949 14.6805C16.7532 15.0226 16.5455 15.3334 16.2837 15.5952C16.0219 15.8571 15.7111 16.0647 15.369 16.2064C15.0269 16.3481 14.6603 16.4211 14.29 16.4211H4.49534C4.12507 16.4211 3.75842 16.3481 3.41634 16.2064C3.07426 16.0647 2.76343 15.8571 2.50161 15.5952C2.23979 15.3334 2.0321 15.0226 1.89041 14.6805C1.74871 14.3384 1.67578 13.9718 1.67578 13.6015V3.80686Z" fill="#5D9E7E"/>
<path fill-rule="evenodd" clip-rule="evenodd" d="M10.0821 8.01567H12.838V5.25978H10.0821V8.01567ZM8.70463 7.92692V5.25978H5.94874V7.92692H8.70463ZM5.94874 9.37866L8.70463 9.39313V12.149H5.94874V9.37866ZM4.57031 5.33309C4.57031 4.53149 5.11049 3.88135 5.77608 3.88135H13.0107C13.6762 3.88135 14.2164 4.53149 14.2164 5.33309V12.0757C14.2164 12.8773 13.6762 13.5274 13.0107 13.5274H5.77608C5.11049 13.5274 4.57031 12.8773 4.57031 12.0757V5.33309ZM10.0821 12.0757V9.37866H12.838V12.0757H10.0821Z" fill="white"/>
</g>
<defs>
<clipPath id="clip0_608_121428">
<rect width="17.363" height="17.363" fill="white" transform="translate(0.710938 0.0224609)"/>
</clipPath>
</defs>
</svg>
