<svg width="20" height="18" viewBox="0 0 20 18" fill="none" xmlns="http://www.w3.org/2000/svg">
<path d="M7.0363 2.20874C7.21992 1.72661 7.47256 1.28273 7.8476 0.923008C9.34733 -0.53874 11.8272 -0.171382 12.8447 1.66536C13.6104 3.05822 14.4212 4.42048 15.2095 5.79806C16.5261 8.08633 17.8578 10.3746 19.1587 12.6705C20.253 14.5915 19.0667 17.0175 16.8933 17.3466C15.5615 17.5456 14.3145 16.9333 13.6256 15.7394C12.4701 13.7267 11.3068 11.7139 10.1508 9.70877C10.1282 9.66285 10.0974 9.6246 10.0666 9.58632C9.94418 9.48683 9.89079 9.34141 9.81439 9.21132C9.30132 8.30827 8.77349 7.41286 8.26085 6.51745C7.93138 5.93579 7.58716 5.36181 7.25814 4.7802C6.95949 4.25978 6.82188 3.69345 6.83707 3.09651C6.86008 2.7904 6.89827 2.48424 7.0363 2.20874Z" fill="#3C8BD9"/>
<path d="M7.03556 2.20898C6.96654 2.48449 6.90536 2.76 6.89016 3.05083C6.86716 3.69369 7.02776 4.29063 7.34941 4.84933C8.19108 6.29576 9.03274 7.74982 9.86704 9.20393C9.94343 9.33402 10.0046 9.46411 10.0815 9.58657C9.62223 10.3825 9.16296 11.1708 8.69633 11.9667C8.05346 13.0764 7.4106 14.1938 6.75992 15.3035C6.7291 15.3035 6.72174 15.2881 6.71393 15.2652C6.70655 15.204 6.72911 15.1504 6.74474 15.0892C7.05857 13.9412 6.79813 12.9233 6.00985 12.0509C5.5276 11.5228 4.91555 11.2243 4.21148 11.1248C3.29298 10.9947 2.48168 11.232 1.7546 11.806C1.62481 11.9055 1.54062 12.0509 1.3874 12.1274C1.35701 12.1274 1.34136 12.1121 1.33398 12.0891C1.70121 11.454 2.06106 10.8187 2.42829 10.1835C3.94364 7.55084 5.45902 4.91818 6.98175 2.2932C6.99738 2.26255 7.01993 2.23959 7.03556 2.20898Z" fill="#FABC04"/>
<path d="M1.36403 12.1124C1.50945 11.9823 1.64749 11.8445 1.80028 11.7221C3.66029 10.2527 6.45356 11.3164 6.85898 13.643C6.95839 14.2017 6.905 14.7374 6.73658 15.2731C6.72877 15.319 6.72139 15.3573 6.70619 15.4032C6.63718 15.5257 6.57597 15.6557 6.49957 15.7782C5.81807 16.9032 4.8158 17.4619 3.49925 17.3777C1.99171 17.2705 0.805379 16.1379 0.598759 14.6379C0.499356 13.9109 0.644759 13.2297 1.0198 12.6022C1.0962 12.4644 1.18823 12.342 1.27244 12.2042C1.31064 12.1736 1.29545 12.1124 1.36403 12.1124Z" fill="#34A852"/>
<path d="M1.36431 12.1117C1.33393 12.1423 1.33393 12.1958 1.28054 12.2035C1.27273 12.1499 1.30311 12.1193 1.33392 12.0811L1.36431 12.1117Z" fill="#FABC04"/>
<path d="M6.70614 15.403C6.67532 15.3495 6.70614 15.3112 6.73652 15.2729C6.74434 15.2806 6.75952 15.2959 6.76734 15.3036L6.70614 15.403Z" fill="#E1C025"/>
</svg>
