<svg width="18" height="18" viewBox="0 0 18 18" fill="none" xmlns="http://www.w3.org/2000/svg">
<path d="M13.5659 5.7394V3.67173C13.8522 3.54407 14.0944 3.34136 14.2644 3.08734C14.4343 2.83328 14.5257 2.53828 14.527 2.23669V2.1892C14.527 1.30985 13.7808 0.596972 12.8601 0.596972H12.8106C12.3684 0.596972 11.9444 0.764741 11.6318 1.06334C11.3191 1.36194 11.1437 1.76689 11.1437 2.1892V2.23669C11.1451 2.53828 11.2359 2.83328 11.4064 3.08734C11.5763 3.34136 11.8185 3.54407 12.1048 3.67173V5.7394C11.2823 5.85964 10.5084 6.18524 9.86034 6.68321L3.92347 2.26655C3.96573 2.12057 3.988 1.97051 3.99027 1.81984C3.99118 1.46503 3.88165 1.11795 3.67579 0.822516C3.46992 0.527129 3.17727 0.296636 2.83416 0.16025C2.49105 0.0238637 2.11341 -0.012295 1.74895 0.0563321C1.38448 0.124959 1.04955 0.295334 0.786425 0.545795C0.523302 0.796299 0.343795 1.11573 0.271083 1.46364C0.197918 1.81155 0.234736 2.17236 0.376068 2.50039C0.517855 2.82842 0.758252 3.10896 1.06682 3.3065C1.37539 3.50405 1.7385 3.60975 2.10978 3.61018C2.43471 3.60875 2.75371 3.52584 3.03456 3.36984L8.88055 7.715C8.35567 8.47277 8.08163 9.36414 8.09435 10.2728C8.10753 11.1815 8.40656 12.0654 8.95326 12.8093L7.17502 14.5082C7.03142 14.4643 6.88145 14.441 6.73058 14.439C6.42564 14.4393 6.12798 14.5258 5.8744 14.6878C5.62082 14.8498 5.42358 15.0799 5.30679 15.349C5.18999 15.6181 5.15955 15.9143 5.21954 16.1999C5.27907 16.4856 5.42586 16.748 5.64127 16.954C5.85713 17.1599 6.13161 17.3002 6.43064 17.3571C6.72966 17.414 7.04005 17.3849 7.32181 17.2735C7.60356 17.1621 7.84441 16.9735 8.01392 16.7314C8.18342 16.4893 8.27386 16.2047 8.27431 15.9134C8.27249 15.7693 8.24796 15.6263 8.20206 15.489L9.96077 13.8083C10.5343 14.2301 11.2014 14.5209 11.9108 14.6584C12.6202 14.7959 13.3532 14.7765 14.0535 14.6016C14.7542 14.4267 15.4032 14.1011 15.9513 13.6496C16.4998 13.1981 16.9324 12.6327 17.2164 11.9967C17.5009 11.3608 17.6286 10.6711 17.5909 9.98065C17.5527 9.29017 17.3496 8.61718 16.9974 8.01317C16.6447 7.4092 16.1526 6.89026 15.5577 6.49612C14.9628 6.10203 14.2816 5.84315 13.5659 5.7394ZM12.8369 12.5396C12.5116 12.5482 12.188 12.4944 11.8853 12.3815C11.5822 12.2686 11.3059 12.0988 11.0728 11.8822C10.8401 11.6656 10.6547 11.4065 10.5279 11.1204C10.4016 10.8342 10.3366 10.5268 10.3366 10.2161C10.3366 9.90552 10.4016 9.59802 10.5279 9.31188C10.6547 9.02574 10.8401 8.76668 11.0728 8.55008C11.3059 8.33347 11.5822 8.16371 11.8853 8.05076C12.188 7.93786 12.5116 7.88408 12.8369 7.89263C13.4668 7.91368 14.0639 8.16748 14.502 8.6006C14.9397 9.03368 15.1851 9.61226 15.1851 10.2144C15.1855 10.8166 14.941 11.3954 14.5034 11.8289C14.0658 12.2624 13.4695 12.5168 12.8392 12.5385" fill="#F65732"/>
</svg>
