<svg width="18" height="18" viewBox="0 0 18 18" fill="none" xmlns="http://www.w3.org/2000/svg">
<path d="M15.5206 9.9763C15.5189 10.1287 15.4573 10.2743 15.3489 10.3815C15.2405 10.4887 15.0942 10.5488 14.9418 10.5488C14.7894 10.5488 14.6431 10.4887 14.5348 10.3815C14.4264 10.2743 14.3647 10.1287 14.363 9.9763V4.77092C14.3647 4.61852 14.4264 4.47289 14.5348 4.36571C14.6431 4.2585 14.7894 4.19838 14.9418 4.19838C15.0942 4.19838 15.2405 4.2585 15.3489 4.36571C15.4573 4.47289 15.5189 4.61852 15.5206 4.77092V9.9763ZM15.3186 13.599C15.2292 13.6756 13.0852 15.4746 9.15415 15.4746C5.22321 15.4746 3.07927 13.6755 2.98981 13.5989C2.87331 13.499 2.80121 13.3569 2.78944 13.2038C2.77768 13.0508 2.82721 12.8994 2.92709 12.7828C3.02675 12.6664 3.16852 12.5943 3.32127 12.5824C3.47398 12.5704 3.62525 12.6195 3.74185 12.7189C3.77583 12.7474 5.69036 14.317 9.15423 14.317C12.6616 14.317 14.5464 12.7361 14.5651 12.7201C14.8073 12.5121 15.1733 12.54 15.3812 12.7829C15.4811 12.8994 15.5307 13.0508 15.5189 13.2039C15.5072 13.3569 15.4351 13.499 15.3186 13.599ZM2.78771 4.77092C2.78936 4.61852 2.85104 4.47289 2.95943 4.36571C3.06777 4.2585 3.21405 4.19838 3.36646 4.19838C3.5189 4.19838 3.66519 4.2585 3.77353 4.36571C3.88188 4.47289 3.9436 4.61852 3.94525 4.77092V9.9763C3.9436 10.1287 3.88188 10.2743 3.77353 10.3815C3.66519 10.4887 3.5189 10.5488 3.36646 10.5488C3.21405 10.5488 3.06777 10.4887 2.95943 10.3815C2.85104 10.2743 2.78936 10.1287 2.78771 9.9763V4.77092ZM5.68164 3.61337C5.68394 3.46141 5.74592 3.31647 5.85423 3.20982C5.96253 3.10321 6.10838 3.04343 6.26035 3.04343C6.41236 3.04343 6.55821 3.10321 6.66651 3.20982C6.77477 3.31647 6.8368 3.46141 6.8391 3.61337V11.3454C6.8368 11.4973 6.77477 11.6423 6.66651 11.7489C6.55821 11.8556 6.41236 11.9154 6.26035 11.9154C6.10838 11.9154 5.96253 11.8556 5.85423 11.7489C5.74592 11.6423 5.68394 11.4973 5.68164 11.3454V3.61337ZM8.57539 3.3205C8.57539 3.2445 8.59037 3.16923 8.61945 3.099C8.64854 3.02881 8.69116 2.965 8.7449 2.91126C8.79864 2.85752 8.86245 2.81489 8.93268 2.78581C9.00287 2.75673 9.07814 2.74175 9.15415 2.74175C9.23015 2.74175 9.30542 2.75669 9.37566 2.78577C9.44589 2.81485 9.5097 2.85748 9.56344 2.91122C9.61718 2.96495 9.65984 3.02876 9.68893 3.099C9.71801 3.16923 9.73299 3.2445 9.73294 3.3205V11.7126C9.73129 11.865 9.66961 12.0106 9.56122 12.1178C9.45288 12.225 9.30659 12.2851 9.15419 12.2851C9.00174 12.2851 8.8555 12.225 8.74712 12.1178C8.63877 12.0106 8.57704 11.865 8.57539 11.7126V3.3205ZM11.4692 3.61337C11.4716 3.46141 11.5336 3.31647 11.6419 3.20982C11.7501 3.10321 11.896 3.04343 12.048 3.04343C12.2 3.04343 12.3459 3.10321 12.4542 3.20982C12.5624 3.31647 12.6244 3.46141 12.6267 3.61337V11.3454C12.6244 11.4973 12.5624 11.6423 12.4542 11.7489C12.3459 11.8556 12.2 11.9154 12.048 11.9154C11.896 11.9154 11.7501 11.8556 11.6419 11.7489C11.5336 11.6423 11.4716 11.4973 11.4692 11.3454V3.61337ZM15.6653 0.430176H2.64303C1.44438 0.430176 0.472656 1.4019 0.472656 2.60055V15.6228C0.472656 16.8214 1.44438 17.7932 2.64303 17.7932H15.6653C16.8639 17.7932 17.8356 16.8214 17.8356 15.6228V2.60055C17.8356 1.4019 16.8639 0.430176 15.6653 0.430176Z" fill="#1F8DED"/>
</svg>
