<svg width="18" height="18" viewBox="0 0 18 18" fill="none" xmlns="http://www.w3.org/2000/svg">
<path fill-rule="evenodd" clip-rule="evenodd" d="M3.58321 3.47425C4.1232 3.91301 4.32591 3.87955 5.33991 3.81187L14.9004 3.23781C15.1031 3.23781 14.9342 3.03553 14.867 3.00194L13.2791 1.85407C12.9748 1.61789 12.5694 1.34737 11.7924 1.41505L2.53535 2.09025C2.19764 2.12372 2.13036 2.29253 2.26449 2.42783L3.58321 3.47425ZM4.15705 5.70231V15.7615C4.15705 16.3021 4.42748 16.5044 5.03519 16.471L15.5424 15.863C16.1505 15.8295 16.2182 15.4577 16.2182 15.0185V5.02681C16.2182 4.58835 16.0498 4.35191 15.6774 4.38568L4.69747 5.02681C4.29205 5.06088 4.15705 5.26355 4.15705 5.70231ZM14.5297 6.24191C14.597 6.54602 14.5297 6.84987 14.225 6.88404L13.7184 6.98492V14.4113C13.2791 14.6475 12.8737 14.7825 12.536 14.7825C11.9951 14.7825 11.8597 14.6136 11.4547 14.1076L8.14316 8.90908V13.9388L9.19102 14.1752C9.19102 14.1752 9.19101 14.7825 8.34587 14.7825L6.01533 14.9178C5.94761 14.7825 6.01533 14.4453 6.25147 14.3777L6.8596 14.2091V7.55894L6.01533 7.49126C5.94761 7.18715 6.11646 6.74869 6.58961 6.71466L9.08986 6.54611L12.536 11.8123V7.15368L11.6574 7.05285C11.5897 6.68106 11.8597 6.41111 12.1979 6.37765L14.5297 6.24191ZM1.75792 1.17887L11.387 0.469762C12.5694 0.368363 12.8737 0.436295 13.6173 0.976153L16.691 3.13654C17.198 3.50807 17.3668 3.60921 17.3668 4.01415V15.863C17.3668 16.6056 17.0964 17.0447 16.1505 17.1119L4.96833 17.7872C4.25862 17.821 3.92048 17.7199 3.54891 17.247L1.28522 14.3101C0.879792 13.7695 0.710938 13.3651 0.710938 12.8919V2.35994C0.710938 1.75267 0.98136 1.2461 1.75792 1.17887Z" fill="black"/>
</svg>
