<svg width="19" height="18" viewBox="0 0 19 18" fill="none" xmlns="http://www.w3.org/2000/svg">
<g clip-path="url(#clip0_608_48936)">
<path d="M13.7021 12.6632C13.8062 11.743 13.7715 11.6041 14.466 11.7604L14.6397 11.7777C15.1606 11.7951 15.8551 11.6909 16.2544 11.4999C17.1226 11.1006 17.6435 10.4234 16.7753 10.597C14.8133 10.9964 14.6744 10.3366 14.6744 10.3366C16.7406 7.26334 17.6087 3.35667 16.8621 2.4017C14.848 -0.185383 11.3233 1.03003 11.2539 1.06475H11.2365C10.8545 0.977937 10.4205 0.943211 9.93429 0.925848C9.04878 0.908485 8.37163 1.15157 7.8681 1.55092C7.8681 1.55092 1.5827 -1.03617 1.86051 4.81516C1.92996 6.06529 3.64889 14.2433 5.69773 11.7604C6.44433 10.8575 7.17358 10.0935 7.17358 10.0935C7.5382 10.3366 7.97228 10.4581 8.42371 10.406L8.45844 10.3713C8.44108 10.4755 8.45844 10.597 8.4758 10.7186C7.95491 11.3089 8.09382 11.4131 7.05204 11.6388C5.97553 11.8645 6.61796 12.2465 7.01731 12.3507C7.52084 12.4722 8.6668 12.6459 9.44813 11.5694L9.4134 11.6909C9.62176 11.8645 9.6044 12.8889 9.63912 13.6182C9.67385 14.3474 9.72594 15.042 9.86484 15.4413C10.0211 15.8407 10.1947 16.8824 11.5838 16.5873C12.7297 16.3615 13.6326 15.9969 13.7021 12.6632Z" fill="black"/>
<path d="M16.7927 10.597C14.8307 10.9964 14.6918 10.3366 14.6918 10.3366C16.7579 7.26334 17.6261 3.35667 16.8795 2.4017C14.848 -0.185383 11.3233 1.03003 11.2539 1.06475H11.2365C10.8545 0.977937 10.4205 0.943211 9.93429 0.925848C9.04878 0.908485 8.37163 1.15157 7.8681 1.55092C7.8681 1.55092 1.5827 -1.03617 1.86051 4.81516C1.92996 6.06529 3.64889 14.2433 5.69773 11.7603C6.44433 10.8575 7.17358 10.0935 7.17358 10.0935C7.5382 10.3366 7.97228 10.4581 8.42371 10.406L8.45844 10.3713C8.44108 10.4755 8.45844 10.597 8.4758 10.7186C7.95491 11.3089 8.09382 11.4131 7.05204 11.6388C5.97553 11.8645 6.61796 12.2465 7.01731 12.3507C7.52084 12.4722 8.6668 12.6459 9.44813 11.5694L9.4134 11.6909C9.62176 11.8645 9.76066 12.7674 9.7433 13.6008C9.72594 14.4342 9.70858 15.0072 9.86484 15.4413C10.0211 15.8927 10.1947 16.8824 11.5838 16.5873C12.7471 16.3442 13.3548 15.6844 13.4243 14.6079C13.4763 13.8439 13.6152 13.9481 13.6326 13.2709L13.7368 12.941C13.8583 11.8993 13.7542 11.5694 14.466 11.7256L14.6397 11.743C15.1606 11.7603 15.8551 11.6562 16.2544 11.4652C17.1399 11.1006 17.6608 10.4234 16.7927 10.597Z" fill="#336791"/>
<path d="M11.1851 16.9341C10.0218 16.9341 9.63977 16.0139 9.50086 15.6319C9.27514 15.0763 9.22305 12.9927 9.27514 11.187C9.27514 11.0481 9.39668 10.9439 9.51823 10.9439C9.65713 10.9439 9.76131 11.0654 9.76131 11.187C9.70922 13.2184 9.79603 15.0415 9.9523 15.4409C10.1954 16.066 10.5774 16.6216 11.6539 16.3785C12.6957 16.1528 13.0603 15.7881 13.2339 14.7811C13.3728 14.0171 13.6333 11.8294 13.668 11.3953C13.6853 11.2564 13.7895 11.1696 13.9284 11.1696C14.0673 11.187 14.1541 11.2911 14.1541 11.43C14.1194 11.8815 13.859 14.0519 13.7201 14.8505C13.5117 16.0486 12.9908 16.5868 11.758 16.8473C11.5497 16.9167 11.3587 16.9341 11.1851 16.9341ZM4.89967 12.4545C4.77813 12.4545 4.69132 12.4371 4.58714 12.4024C3.82317 12.1419 3.11129 10.9265 2.45149 8.73878C1.94797 7.08929 1.63543 5.37036 1.60071 4.79738C1.51389 3.13053 1.94797 1.94985 2.88557 1.29006C3.6669 0.734443 4.76077 0.560813 6.13244 0.786532C7.1395 0.942799 7.90347 1.25533 7.93819 1.2727C8.05973 1.32478 8.12919 1.46369 8.0771 1.58523C8.02501 1.70677 7.88611 1.77622 7.76456 1.72413C7.72984 1.72413 4.77813 0.54345 3.16337 1.68941C2.38204 2.24502 2.01742 3.2868 2.08687 4.78002C2.10423 5.24882 2.41677 6.93303 2.92029 8.59987C3.51063 10.5272 4.17043 11.7426 4.76077 11.9336C4.84758 11.9683 5.12539 12.0551 5.50738 11.5863C6.25398 10.6834 6.9485 9.97155 6.9485 9.95419C7.03532 9.85001 7.19159 9.85001 7.29576 9.95419C7.39994 10.041 7.39994 10.1973 7.29576 10.3014C7.29576 10.3014 6.61861 11.0133 5.872 11.8988C5.52474 12.3329 5.17748 12.4545 4.89967 12.4545ZM14.6924 10.5619C14.6403 10.5619 14.6056 10.5445 14.5535 10.5272C14.4493 10.4577 14.4146 10.3014 14.484 10.1973C16.5676 7.08929 17.3142 3.35625 16.6891 2.55756C15.9078 1.5505 14.7966 1.02961 13.3902 0.994888C12.3484 0.977525 11.515 1.23797 11.3761 1.29006C11.3587 1.29006 11.3587 1.30742 11.3413 1.30742C11.2024 1.35951 11.0809 1.2727 11.0462 1.18588C10.9941 1.0817 11.0288 0.942799 11.1503 0.873347C11.2372 0.821258 12.1921 0.508724 13.3381 0.526087C14.9008 0.54345 16.203 1.15115 17.0885 2.27975C17.3142 2.55756 17.4184 3.02636 17.401 3.63406C17.3837 4.20704 17.2795 4.90156 17.0885 5.64817C16.6718 7.28029 15.8731 9.05131 14.9008 10.4751C14.8313 10.5272 14.7618 10.5619 14.6924 10.5619Z" fill="white"/>
<path d="M14.7955 11.9859C14.4308 11.9859 14.1183 11.9338 13.91 11.8122C13.7016 11.6907 13.6669 11.5171 13.6669 11.4303C13.6148 10.4927 14.1183 10.319 14.3961 10.2322C14.3614 10.1801 14.3093 10.128 14.2746 10.0586C14.1183 9.86758 13.91 9.58978 13.7363 9.19043C13.719 9.12097 13.6321 8.98207 13.5453 8.8258C13.0418 7.92293 11.9827 6.03036 12.6598 5.05804C12.9724 4.6066 13.5974 4.43297 14.5003 4.51978C14.3788 4.15516 14.0836 3.49537 13.528 2.83558C12.8508 2.10633 11.7049 1.18609 9.91647 1.15137C9.01359 1.134 8.26699 1.41181 7.69401 1.98479C6.44387 3.25229 6.4786 5.56156 6.4786 5.57893C6.4786 5.71783 6.37442 5.82201 6.23552 5.82201C6.09661 5.82201 5.99244 5.71783 5.99244 5.57893C5.99244 5.47475 5.94035 3.04393 7.34675 1.63753C8.00654 0.977736 8.87469 0.647839 9.91647 0.665202C11.8611 0.699928 13.1286 1.68962 13.8405 2.52304C14.6218 3.42592 14.9865 4.41561 15.0212 4.7455C15.0385 5.00595 14.8476 5.05804 14.8128 5.0754H14.726C13.6148 4.90177 13.1981 5.12749 13.0244 5.37057C12.5209 6.09982 13.5106 7.87084 13.9273 8.61745C14.0315 8.80844 14.1183 8.94734 14.153 9.03416C14.2919 9.36406 14.4656 9.58978 14.6218 9.78077C14.7434 9.93703 14.8649 10.0759 14.8996 10.2496C14.917 10.2843 15.1948 10.6489 16.7054 10.3364C17.1047 10.2496 17.3478 10.319 17.4173 10.5447C17.5562 10.9788 16.7575 11.4823 16.3234 11.6907C15.9588 11.8817 15.3337 11.9859 14.7955 11.9859ZM14.153 11.3955C14.2051 11.4476 14.4656 11.5171 14.9517 11.4997C15.4032 11.4823 15.872 11.3782 16.1498 11.2566C16.4797 11.1004 16.7054 10.9441 16.8443 10.8052H16.8269C15.8372 11.0135 15.1254 10.9788 14.726 10.7184C14.7087 10.701 14.6739 10.6836 14.6566 10.6663C14.6218 10.6836 14.5871 10.6836 14.5524 10.701C14.3267 10.7705 14.1183 10.8225 14.153 11.3955ZM7.71137 12.6804C7.46829 12.6804 7.20784 12.6457 6.93004 12.5762C6.86058 12.5588 6.18343 12.3679 6.18343 11.9511C6.18343 11.5518 6.75641 11.4303 6.96476 11.3955C7.71137 11.2393 7.76346 11.1872 7.98918 10.892C8.05863 10.8052 8.14545 10.701 8.26699 10.5621C8.64897 10.128 9.03096 10.2843 9.18722 10.3364C9.43031 10.4406 9.63866 10.6836 9.72548 10.9788C9.79493 11.2393 9.7602 11.4997 9.6213 11.7081C9.1525 12.3505 8.4927 12.6804 7.71137 12.6804ZM6.72168 11.9685C6.79113 12.0206 6.91267 12.0727 7.05158 12.1074C7.69401 12.2637 8.59688 12.281 9.22195 11.4129C9.2914 11.3087 9.27404 11.1698 9.25668 11.1004C9.22195 10.9615 9.11777 10.8225 8.99623 10.7705C8.85733 10.7184 8.78788 10.6836 8.63161 10.8573C8.52743 10.9788 8.44062 11.083 8.37116 11.1524C8.07599 11.5344 7.93709 11.656 7.05158 11.8296C6.89531 11.8991 6.79113 11.9511 6.72168 11.9685Z" fill="white"/>
<path d="M8.42399 10.944C8.30245 10.944 8.19827 10.8572 8.18091 10.7357C8.18091 10.7009 8.18091 10.6662 8.16355 10.6315C7.59057 10.6141 7.03495 10.371 6.61824 9.93697C6.07999 9.38135 5.83691 8.60002 5.95845 7.81869C6.07999 6.9679 6.0279 6.22129 6.01054 5.82194C6.01054 5.71776 5.99318 5.63095 5.99318 5.57886C5.99318 5.50941 5.99317 5.30105 6.63561 4.98852C6.86132 4.86698 7.31276 4.67599 7.79893 4.6239C8.61499 4.53708 9.1706 4.9017 9.32687 5.66568C9.76094 7.67978 9.36159 8.56529 9.06642 9.20772C9.01433 9.32926 8.96224 9.43344 8.92752 9.55498L8.89279 9.65916C8.73653 10.0759 8.61499 10.4231 8.64971 10.6836C8.66707 10.8225 8.58026 10.944 8.44136 10.9614C8.44136 10.944 8.44136 10.944 8.42399 10.944ZM6.4967 5.64831V5.80458C6.51406 6.22129 6.56615 7.00262 6.44461 7.9055C6.3578 8.54793 6.54879 9.173 6.98286 9.62443C7.31276 9.97169 7.7642 10.1801 8.21564 10.1801C8.26773 9.97169 8.35454 9.72861 8.44136 9.48553L8.47608 9.38135C8.52817 9.25981 8.58026 9.13827 8.63235 8.99937C8.91016 8.3743 9.25742 7.61033 8.85807 5.75249C8.78861 5.38787 8.59762 5.17951 8.28509 5.11006C7.64266 4.97116 6.68769 5.47468 6.4967 5.64831Z" fill="white"/>
<path d="M7.83335 5.54416C7.81599 5.63097 7.97225 5.83933 8.18061 5.85669C8.38896 5.89142 8.56259 5.71779 8.56259 5.64834C8.57996 5.56152 8.42369 5.47471 8.21533 5.45734C8.02434 5.42262 7.83335 5.47471 7.83335 5.54416Z" fill="white"/>
<path d="M8.23202 5.94382H8.17993C8.05839 5.92646 7.91948 5.83965 7.83267 5.73547C7.79794 5.70074 7.74585 5.61393 7.76321 5.54447C7.76321 5.50975 7.78058 5.47502 7.83267 5.4403C7.91948 5.37085 8.07575 5.35348 8.24938 5.38821C8.45773 5.42293 8.68345 5.52711 8.66609 5.68338C8.63136 5.78756 8.44037 5.94382 8.23202 5.94382ZM7.91948 5.56184C7.93684 5.61393 8.04102 5.77019 8.19729 5.78756C8.35356 5.80492 8.4751 5.68338 8.49246 5.64865C8.4751 5.63129 8.38828 5.56184 8.21465 5.54447C8.04102 5.50975 7.93684 5.54447 7.91948 5.56184ZM14.0486 5.38821C14.066 5.47502 13.9097 5.68338 13.7014 5.70074C13.493 5.73547 13.3194 5.56184 13.3194 5.49239C13.302 5.40557 13.4583 5.31876 13.6666 5.30139C13.8576 5.26667 14.0313 5.30139 14.0486 5.38821Z" fill="white"/>
<path d="M13.6507 5.7524C13.4423 5.7524 13.286 5.59614 13.2687 5.49196C13.2513 5.37042 13.4423 5.2836 13.6507 5.24888C13.859 5.21415 14.0674 5.24888 14.0847 5.37042C14.0847 5.42251 14.05 5.50932 13.9806 5.57877C13.9285 5.63086 13.8417 5.71768 13.7028 5.73504C13.6854 5.7524 13.668 5.7524 13.6507 5.7524ZM13.7896 5.31833C13.7548 5.31833 13.7201 5.31833 13.668 5.33569C13.4597 5.37042 13.3555 5.45723 13.3555 5.49196C13.3555 5.54405 13.5118 5.70031 13.7028 5.66559C13.8069 5.64822 13.8937 5.57877 13.9285 5.54405C13.9979 5.47459 14.0153 5.42251 14.0153 5.40514C13.9979 5.37042 13.9285 5.31833 13.7896 5.31833ZM14.3452 9.97161C14.2931 9.97161 14.2584 9.95424 14.2063 9.93688C14.1021 9.86743 14.0674 9.71116 14.1368 9.60698C14.6056 8.8951 14.5188 8.16586 14.432 7.47134C14.3973 7.17617 14.3625 6.86363 14.3625 6.5511C14.3799 6.23857 14.4146 5.99548 14.4494 5.7524C14.5014 5.45723 14.5362 5.19679 14.5188 4.86689C14.5188 4.72799 14.623 4.62381 14.7445 4.60645C14.8834 4.60645 14.9876 4.71062 15.005 4.83216C15.0223 5.21415 14.9702 5.50932 14.9355 5.82185C14.9008 6.04757 14.8661 6.29065 14.8487 6.56846C14.8487 6.82891 14.8661 7.10671 14.9008 7.40189C14.9876 8.14849 15.0918 8.99928 14.5188 9.86743C14.5014 9.91952 14.4146 9.97161 14.3452 9.97161Z" fill="white"/>
</g>
<defs>
<clipPath id="clip0_608_48936">
<rect width="17.363" height="17.363" fill="white" transform="translate(0.853516 0.0224609)"/>
</clipPath>
</defs>
</svg>
