<svg width="18" height="18" viewBox="0 0 18 18" fill="none" xmlns="http://www.w3.org/2000/svg">
<mask id="mask0_608_134842" style="mask-type:luminance" maskUnits="userSpaceOnUse" x="0" y="0" width="18" height="18">
<path d="M0.330078 0.0224609H17.6931V17.3854H0.330078V0.0224609Z" fill="white"/>
</mask>
<g mask="url(#mask0_608_134842)">
<path d="M17.0179 12.7153C16.0976 13.2014 11.2881 15.1634 10.2637 15.7017C9.23924 16.2399 8.66626 16.2226 7.86757 15.8406C7.06887 15.4586 1.94679 13.3924 1.02655 12.9583C0.575113 12.7326 0.332031 12.559 0.332031 12.3854V10.6143C0.332031 10.6143 6.98205 9.17321 8.05856 8.77387C9.13506 8.39188 9.49969 8.37452 10.4199 8.70441C11.3402 9.03431 16.7921 10.024 17.695 10.3539V12.0902C17.695 12.2812 17.4867 12.4722 17.0179 12.7153Z" fill="#912626"/>
<path d="M17.0167 10.962C16.0965 11.4481 11.2869 13.4101 10.2625 13.9484C9.23808 14.4867 8.6651 14.4693 7.8664 14.0873C7.06771 13.7053 1.94563 11.6391 1.02539 11.205C0.105151 10.771 0.0877877 10.4584 0.990663 10.1112C1.89354 9.76392 6.98089 7.76718 8.04003 7.38519C9.11654 7.00321 9.48116 6.98585 10.4014 7.31574C11.3216 7.64564 16.0791 9.55557 16.982 9.88546C17.9022 10.2154 17.9369 10.4758 17.0167 10.962Z" fill="#C6302B"/>
<path d="M17.0179 9.86782C16.0976 10.354 11.2881 12.316 10.2637 12.8543C9.23924 13.3925 8.66626 13.3751 7.86757 12.9932C7.06887 12.6112 1.94679 10.545 1.02655 10.1109C0.575113 9.88518 0.332031 9.71156 0.332031 9.53793V7.78426C0.332031 7.78426 6.98205 6.34314 8.05856 5.94379C9.13506 5.5618 9.49969 5.54444 10.4199 5.87434C11.3402 6.20423 16.7921 7.19392 17.695 7.52382V9.26012C17.695 9.43375 17.4867 9.62474 17.0179 9.86782Z" fill="#912626"/>
<path d="M17.0167 8.13168C16.0965 8.61784 11.2869 10.5799 10.2625 11.1181C9.23808 11.6564 8.6651 11.639 7.8664 11.257C7.06771 10.875 1.94563 8.80883 1.02539 8.37476C0.105151 7.94068 0.0877877 7.62815 0.990663 7.28089C1.89354 6.91627 6.98089 4.91952 8.0574 4.53754C9.1339 4.15555 9.49852 4.13819 10.4188 4.46809C11.339 4.79798 16.0965 6.70791 16.9993 7.03781C17.9022 7.3677 17.9369 7.64551 17.0167 8.13168Z" fill="#C6302B"/>
<path d="M17.0179 6.93352C16.0976 7.41969 11.2881 9.38171 10.2637 9.91996C9.23924 10.4582 8.66626 10.4408 7.86757 10.0589C7.06887 9.67688 1.94679 7.61068 1.02655 7.17661C0.575113 6.95089 0.332031 6.77726 0.332031 6.60363V4.8326C0.332031 4.8326 6.98205 3.39148 8.05856 2.99213C9.13506 2.61014 9.49969 2.59278 10.4199 2.92268C11.3402 3.25257 16.7921 4.24226 17.695 4.57216V6.30846C17.695 6.48209 17.4867 6.67308 17.0179 6.93352Z" fill="#912626"/>
<path d="M17.0167 5.17974C16.0965 5.66591 11.2869 7.62792 10.2625 8.16617C9.23808 8.70443 8.6651 8.68706 7.8664 8.30508C7.06771 7.92309 1.94563 5.8569 1.02539 5.42282C0.105151 4.98875 0.0877877 4.67622 0.990663 4.32896C1.89354 3.9817 6.98089 1.98495 8.04003 1.60297C9.11654 1.22098 9.48116 1.20362 10.4014 1.53352C11.3216 1.86341 16.0791 3.77334 16.982 4.10324C17.9022 4.43313 17.9369 4.69358 17.0167 5.17974Z" fill="#C6302B"/>
<path d="M11.1304 3.47822L9.63719 3.63449L9.3073 4.43318L8.76904 3.53031L7.05011 3.37404L8.33497 2.90524L7.95298 2.19336L9.15103 2.66216L10.2796 2.29754L9.96709 3.02678L11.1304 3.47822ZM9.22048 7.36753L6.4424 6.20421L10.4359 5.5965L9.22048 7.36753ZM5.34854 3.91229C6.52922 3.91229 7.48418 4.27692 7.48418 4.74572C7.48418 5.19716 6.52922 5.57914 5.34854 5.57914C4.16785 5.57914 3.21289 5.21452 3.21289 4.74572C3.21289 4.29428 4.18522 3.91229 5.34854 3.91229Z" fill="white"/>
<path d="M12.9004 3.68652L15.2618 4.62412L12.9004 5.56173V3.68652Z" fill="#621B1C"/>
<path d="M10.2793 4.7283L12.9011 3.68652V5.54436L12.6407 5.64854L10.2793 4.7283Z" fill="#9A2928"/>
</g>
</svg>
