<svg width="18" height="19" viewBox="0 0 18 19" fill="none" xmlns="http://www.w3.org/2000/svg">
<g clip-path="url(#clip0_608_134780)">
<path fill-rule="evenodd" clip-rule="evenodd" d="M7.55501 4.7056C7.83381 4.39803 8.1736 4.15187 8.55275 3.98281C8.93189 3.81375 9.34209 3.72548 9.75721 3.72363C10.9032 3.72363 11.9035 4.38728 12.4359 5.37311C12.9103 5.15268 13.4273 5.03877 13.9504 5.03936C16.0175 5.03936 17.6931 6.79495 17.6931 8.96242C17.6931 11.1289 16.0175 12.8865 13.9504 12.8865C13.7025 12.8865 13.4555 12.8604 13.2124 12.8093C12.7436 13.6784 11.8504 14.2659 10.8241 14.2659C10.4083 14.2661 9.99846 14.1679 9.62795 13.9794C9.15144 15.1417 8.04406 15.9568 6.75342 15.9568C5.40875 15.9568 4.26376 15.0723 3.8239 13.8327C3.63097 13.8752 3.43226 13.8974 3.22777 13.8974C1.62748 13.8974 0.330078 12.5363 0.330078 10.855C0.330078 9.72929 0.912703 8.74539 1.77892 8.21968C1.59519 7.77866 1.50108 7.30549 1.50208 6.82774C1.50208 4.89563 3.01169 3.3291 4.87436 3.3291C5.96726 3.3291 6.93862 3.86928 7.55597 4.7056H7.55501Z" fill="#00A1E0"/>
<path d="M5.46092 10.4316C5.77482 10.4316 6.07587 10.3069 6.29783 10.0849C6.5198 9.86298 6.6445 9.56193 6.6445 9.24803C6.6445 8.93413 6.5198 8.63308 6.29783 8.41111C6.07587 8.18915 5.77482 8.06445 5.46092 8.06445C5.14702 8.06445 4.84597 8.18915 4.62401 8.41111C4.40204 8.63308 4.27734 8.93413 4.27734 9.24803C4.27734 9.56193 4.40204 9.86298 4.62401 10.0849C4.84597 10.3069 5.14702 10.4316 5.46092 10.4316ZM9.4081 10.4316C9.72201 10.4316 10.0231 10.3069 10.245 10.0849C10.467 9.86298 10.5917 9.56193 10.5917 9.24803C10.5917 8.93413 10.467 8.63308 10.245 8.41111C10.0231 8.18915 9.72201 8.06445 9.4081 8.06445C9.0942 8.06445 8.79315 8.18915 8.57119 8.41111C8.34923 8.63308 8.22453 8.93413 8.22453 9.24803C8.22453 9.56193 8.34923 9.86298 8.57119 10.0849C8.79315 10.3069 9.0942 10.4316 9.4081 10.4316ZM13.3534 10.4316C13.6673 10.4316 13.9683 10.3069 14.1903 10.0849C14.4122 9.86298 14.5369 9.56193 14.5369 9.24803C14.5369 8.93413 14.4122 8.63308 14.1903 8.41111C13.9683 8.18915 13.6673 8.06445 13.3534 8.06445C13.0395 8.06445 12.7384 8.18915 12.5164 8.41111C12.2945 8.63308 12.1698 8.93413 12.1698 9.24803C12.1698 9.56193 12.2945 9.86298 12.5164 10.0849C12.7384 10.3069 13.0395 10.4316 13.3534 10.4316Z" fill="white"/>
</g>
<defs>
<clipPath id="clip0_608_134780">
<rect width="17.363" height="17.363" fill="white" transform="translate(0.330078 0.960938)"/>
</clipPath>
</defs>
</svg>
