<svg width="19" height="18" viewBox="0 0 19 18" fill="none" xmlns="http://www.w3.org/2000/svg">
<mask id="mask0_608_49027" style="mask-type:alpha" maskUnits="userSpaceOnUse" x="0" y="0" width="19" height="18">
<path d="M0.949219 0.0224609H18.3122V17.3854H0.949219V0.0224609Z" fill="white"/>
</mask>
<g mask="url(#mask0_608_49027)">
<path fill-rule="evenodd" clip-rule="evenodd" d="M8.15802 1.92338C8.71866 1.08814 9.49884 0.570892 10.3606 0.570892C11.5095 0.570892 12.5052 1.48475 13.0416 2.84635C13.5176 2.54176 14.0331 2.3845 14.5543 2.38489C16.6226 2.38489 18.3015 4.80655 18.3015 7.7948C18.3015 10.7831 16.6226 13.2048 14.5543 13.2048C14.3018 13.2048 14.0552 13.1684 13.8139 13.0997C13.3448 14.2968 12.4479 15.1101 11.4264 15.1101C11.0107 15.1113 10.6001 14.9763 10.2266 14.7153C9.75081 16.3146 8.64347 17.4386 7.3539 17.4386C6.00702 17.4386 4.8642 16.2232 4.42393 14.5143C4.22775 14.5735 4.02793 14.6033 3.82751 14.6031C2.22532 14.6031 0.929688 12.7206 0.929688 10.4086C0.929688 8.85507 1.51307 7.50259 2.37845 6.77152C2.195 6.1659 2.1004 5.51266 2.101 4.85243C2.101 2.18404 3.61374 0.0273438 5.47791 0.0273438C6.56948 0.0273438 7.54613 0.772129 8.15893 1.92816" fill="#24A1E0"/>
<path fill-rule="evenodd" clip-rule="evenodd" d="M3.46102 9.05139C3.4501 9.09215 3.46466 9.10066 3.4683 9.10786C3.50105 9.14168 3.53409 9.16616 3.56714 9.19368C3.74483 9.32798 3.9119 9.36731 4.08685 9.36731C4.44313 9.36731 4.66448 9.09588 4.66448 8.65907V8.65048C4.66448 8.24657 4.41433 8.09942 4.18055 7.99433L4.15023 7.98018C3.97315 7.8981 3.82063 7.82665 3.82063 7.66036V7.65185C3.82063 7.5093 3.91008 7.40417 4.04804 7.40417C4.20116 7.40417 4.3837 7.47722 4.50044 7.56959C4.50044 7.56959 4.53501 7.60158 4.54774 7.55379C4.55441 7.52792 4.61414 7.29973 4.62051 7.27416C4.62718 7.24738 4.61536 7.22719 4.60323 7.21678C4.46921 7.09979 4.28394 7.02027 4.09261 7.02027L4.05684 7.02044C3.73088 7.02044 3.50286 7.30285 3.50286 7.70676V7.71544C3.50286 8.14131 3.75453 8.28021 3.98922 8.37615L4.02712 8.39294C4.19813 8.46826 4.34641 8.53371 4.34641 8.70548V8.71407C4.34641 8.87216 4.24998 8.99006 4.09534 8.99006C4.03531 8.99006 3.84398 8.98862 3.63627 8.80089C3.61141 8.77996 3.59716 8.7649 3.57776 8.74797C3.56745 8.73912 3.54198 8.72314 3.53076 8.77102L3.46072 9.05065L3.46102 9.05139ZM8.67601 9.05065C8.66509 9.09141 8.67995 9.09992 8.68359 9.10713C8.71603 9.14094 8.74908 9.16542 8.78244 9.19294C8.95982 9.32729 9.12719 9.36657 9.30215 9.36657C9.65812 9.36657 9.87977 9.09515 9.87977 8.65834V8.64974C9.87977 8.24584 9.63023 8.09868 9.39584 7.99359L9.36522 7.97944C9.18844 7.8974 9.03593 7.82591 9.03593 7.65962V7.65111C9.03593 7.50856 9.12537 7.40347 9.26303 7.40347C9.41646 7.40347 9.59839 7.47648 9.71573 7.56885C9.71573 7.56885 9.7503 7.60085 9.76303 7.55305C9.76971 7.52718 9.82944 7.29899 9.8352 7.27342C9.84187 7.24664 9.83004 7.22646 9.81792 7.21604C9.6839 7.09905 9.49863 7.01953 9.3073 7.01953L9.27152 7.01975C8.94526 7.01975 8.71755 7.30211 8.71755 7.70602V7.7147C8.71755 8.14057 8.96892 8.27948 9.20391 8.37541L9.2415 8.39225C9.41343 8.46752 9.56079 8.53298 9.56079 8.70478V8.71333C9.56079 8.87147 9.46437 8.98932 9.31003 8.98932C9.24969 8.98932 9.05776 8.98789 8.85097 8.80015C8.8258 8.77923 8.81124 8.76482 8.79214 8.74728C8.78577 8.74142 8.75575 8.72458 8.74545 8.77029L8.6751 9.04992L8.67601 9.05065ZM12.2373 8.19457C12.2373 8.4413 12.2048 8.63594 12.1421 8.77393C12.0793 8.9101 11.9844 8.97682 11.8522 8.97682C11.72 8.97682 11.6257 8.91066 11.5635 8.77484C11.5014 8.63776 11.4698 8.44221 11.4698 8.19548C11.4698 7.94876 11.5014 7.75503 11.5635 7.61886C11.6254 7.4836 11.7194 7.41871 11.8522 7.41871C11.985 7.41871 12.0796 7.48425 12.1421 7.61886C12.2054 7.75503 12.2373 7.94876 12.2373 8.19548V8.19457ZM12.5347 7.73766C12.5053 7.59598 12.4598 7.47171 12.3992 7.36753C12.3385 7.26335 12.2621 7.17927 12.1709 7.11898C12.0802 7.05821 11.9729 7.02761 11.8516 7.02761C11.7303 7.02761 11.6236 7.05838 11.5323 7.11898C11.4416 7.17966 11.3646 7.26335 11.304 7.36753C11.2433 7.47171 11.1978 7.59598 11.1684 7.73766C11.1396 7.87839 11.1248 8.03192 11.1248 8.19548C11.1248 8.35904 11.1396 8.51257 11.1684 8.6533C11.1978 8.79494 11.2433 8.91926 11.304 9.02344C11.3646 9.12761 11.4416 9.21074 11.5323 9.27017C11.6236 9.32937 11.7309 9.35954 11.8516 9.35954C11.9723 9.35954 12.0796 9.32937 12.17 9.27017C12.2606 9.21096 12.3379 9.12761 12.3986 9.02344C12.4592 8.91926 12.5047 8.79494 12.5338 8.6533C12.5629 8.51257 12.5778 8.35904 12.5778 8.19548C12.5778 8.03284 12.5629 7.87839 12.5338 7.73766H12.5347ZM14.9789 8.90737C14.9689 8.86595 14.9407 8.88158 14.9407 8.88158C14.8977 8.90528 14.8516 8.9272 14.8025 8.93814C14.7527 8.9493 14.6975 8.9549 14.6396 8.9549C14.4959 8.9549 14.381 8.89356 14.2994 8.77211C14.217 8.65057 14.1709 8.45502 14.1718 8.19001C14.1721 7.94876 14.2127 7.76779 14.2858 7.62889C14.358 7.4918 14.4692 7.42053 14.616 7.42053C14.7385 7.42053 14.8322 7.44093 14.9307 7.48499C14.9307 7.48499 14.9541 7.49949 14.965 7.45556C14.9914 7.35229 15.0105 7.27824 15.0384 7.16495C15.0465 7.13252 15.0271 7.1188 15.0199 7.11485C14.9814 7.09328 14.8904 7.05795 14.8213 7.04301C14.757 7.02895 14.6824 7.02166 14.5981 7.02166C14.4729 7.02166 14.3619 7.05226 14.2667 7.11295C14.1715 7.17354 14.0911 7.25732 14.0274 7.3615C13.9635 7.46567 13.915 7.58995 13.8825 7.73163C13.8501 7.87236 13.834 8.0268 13.834 8.19036C13.834 8.54309 13.9004 8.82915 14.0317 9.03841C14.1633 9.24859 14.3613 9.35459 14.619 9.35459C14.7715 9.35459 14.928 9.31045 15.0405 9.24677C15.0405 9.24677 15.0617 9.23197 15.0526 9.19615L14.9789 8.90737ZM15.4993 7.95696C15.5135 7.81988 15.5399 7.70567 15.5811 7.61704C15.6427 7.48178 15.7367 7.40777 15.8689 7.40777C16.0011 7.40777 16.0884 7.48213 16.1512 7.61704C16.1927 7.70611 16.2106 7.82448 16.2176 7.95696L15.4962 7.95679L15.4993 7.95696ZM16.5017 7.65541C16.4762 7.51924 16.4134 7.38125 16.3725 7.31817C16.3076 7.2186 16.2442 7.14823 16.1812 7.10982C16.0899 7.0543 15.9917 7.02578 15.8925 7.02604C15.7667 7.02604 15.6527 7.05647 15.5599 7.11833C15.4674 7.18066 15.3895 7.26548 15.3282 7.37148C15.267 7.47748 15.2209 7.60267 15.1918 7.74613C15.1624 7.88781 15.1475 8.04312 15.1475 8.20581C15.1475 8.37211 15.163 8.52655 15.193 8.66637C15.2236 8.80709 15.2731 8.9305 15.3395 9.03281C15.4056 9.13608 15.4905 9.21651 15.5926 9.27316C15.6942 9.32937 15.8173 9.35854 15.9586 9.35789C16.2497 9.3565 16.4028 9.26374 16.4653 9.21352C16.4765 9.20453 16.4871 9.18908 16.4738 9.14459L16.4083 8.8805C16.398 8.84113 16.3701 8.85536 16.3701 8.85536C16.2982 8.89391 16.196 8.96319 15.9565 8.96228C15.8003 8.96193 15.6845 8.89586 15.6117 8.79229C15.5378 8.68629 15.5008 8.53185 15.495 8.31255L16.5035 8.31364C16.5035 8.31364 16.5302 8.31329 16.5329 8.27618C16.5341 8.26081 16.5675 7.98009 16.5029 7.65567L16.5017 7.65541ZM7.43707 7.95696C7.45132 7.81988 7.4774 7.70567 7.51864 7.61704C7.58049 7.48178 7.67449 7.40777 7.80669 7.40777C7.9389 7.40777 8.02622 7.48213 8.08868 7.61704C8.13022 7.70611 8.14842 7.82448 8.15509 7.95696L7.43374 7.95679L7.43707 7.95696ZM8.4392 7.65541C8.41403 7.51924 8.35127 7.38125 8.31033 7.31817C8.24514 7.2186 8.18207 7.14823 8.1187 7.10982C8.02743 7.0543 7.92949 7.02578 7.83034 7.02604C7.70451 7.02604 7.5902 7.05647 7.49771 7.11833C7.40523 7.18066 7.32731 7.26548 7.26606 7.37148C7.20481 7.47748 7.15872 7.60267 7.12931 7.74613C7.0999 7.88781 7.08534 8.04312 7.08534 8.20581C7.08534 8.37211 7.1005 8.52655 7.13113 8.66637C7.16145 8.80709 7.21088 8.9305 7.27667 9.03281C7.34278 9.13608 7.42767 9.21651 7.52986 9.27316C7.63143 9.32937 7.75393 9.35854 7.89584 9.35789C8.18692 9.3565 8.34005 9.26374 8.40251 9.21352C8.41373 9.20453 8.42434 9.18908 8.411 9.14459L8.3452 8.8805C8.3352 8.84113 8.3073 8.85536 8.3073 8.85536C8.23514 8.89391 8.13295 8.96319 7.89371 8.96228C7.73786 8.96193 7.62173 8.89586 7.54896 8.79229C7.47498 8.68629 7.43798 8.53185 7.43222 8.31255L8.44071 8.31364C8.44071 8.31364 8.4674 8.31329 8.47012 8.27618C8.47103 8.26081 8.50469 7.98009 8.43981 7.65567L8.4392 7.65541ZM5.26029 8.89821C5.22088 8.85306 5.21511 8.84204 5.20208 8.81269C5.18206 8.76855 5.17206 8.70578 5.17206 8.62535C5.17206 8.49925 5.20147 8.40788 5.26212 8.34663C5.26121 8.3468 5.34883 8.2388 5.55441 8.24245C5.64568 8.24479 5.73725 8.25595 5.82761 8.27579V8.93102C5.82761 8.93102 5.69995 8.97044 5.55562 8.98285C5.35095 9.00048 5.26029 8.89842 5.2609 8.89868L5.26029 8.89821ZM5.66115 7.88386C5.62021 7.87956 5.56715 7.87748 5.50408 7.87748C5.41797 7.87748 5.33428 7.8928 5.25635 7.92297C5.17782 7.95331 5.10717 8.00028 5.04653 8.06279C4.98558 8.1249 4.93555 8.20621 4.90008 8.3004C4.8646 8.39542 4.84641 8.50693 4.84641 8.63303C4.84641 8.76095 4.86187 8.87155 4.8925 8.96202C4.92251 9.05174 4.96769 9.12935 5.02409 9.18773C5.07988 9.24603 5.14902 9.28918 5.22876 9.31474C5.30821 9.34062 5.39735 9.35368 5.49559 9.35368C5.59929 9.35368 5.70178 9.34127 5.80153 9.31722C5.88643 9.2963 5.97073 9.27277 6.05502 9.24668C6.08837 9.23561 6.12567 9.22107 6.12567 9.22107C6.15053 9.21204 6.14872 9.17393 6.14872 9.17393L6.14811 7.85799C6.14811 7.56924 6.09444 7.35446 5.98801 7.22198C5.88189 7.08946 5.72694 7.02274 5.52591 7.02274C5.45041 7.02274 5.32852 7.03737 5.25575 7.0583C5.25575 7.0583 5.03622 7.11933 4.94556 7.22094C4.94556 7.22094 4.92555 7.23852 4.93646 7.27824L5.00802 7.5524C5.01681 7.58795 5.04107 7.5758 5.04107 7.5758C5.04107 7.5758 5.04865 7.5715 5.05745 7.5639C5.2509 7.41315 5.49619 7.41771 5.49619 7.41771C5.60475 7.41771 5.68904 7.44922 5.74513 7.5109C5.80002 7.57133 5.82791 7.66261 5.82791 7.85452V7.91546C5.7418 7.89758 5.66206 7.88725 5.66206 7.88725L5.66115 7.88386ZM13.7682 7.1409C13.7697 7.13608 13.7703 7.13092 13.7703 7.12566C13.7703 7.12041 13.7697 7.1152 13.7682 7.11034C13.767 7.10552 13.7649 7.10114 13.7621 7.09745C13.7594 7.0938 13.7564 7.09089 13.753 7.08898C13.7358 7.07969 13.6502 7.05382 13.5844 7.04796C13.458 7.03663 13.388 7.06715 13.3246 7.10774C13.2621 7.14802 13.1933 7.21283 13.1548 7.28775V7.11229C13.1548 7.08816 13.1427 7.06871 13.1257 7.06871H12.868C12.8513 7.06871 12.8391 7.08816 12.8391 7.11229V9.25983C12.8391 9.27142 12.8425 9.28254 12.8479 9.29074C12.8537 9.29894 12.8616 9.30359 12.8698 9.30359H13.1339C13.1421 9.30359 13.1499 9.29894 13.1554 9.29074C13.1612 9.28254 13.1645 9.27142 13.1645 9.25983V8.18151C13.1645 8.03713 13.1757 7.89363 13.1979 7.80317C13.2197 7.7137 13.2491 7.64234 13.2858 7.59116C13.3207 7.54172 13.3634 7.50504 13.4104 7.48425C13.4544 7.46615 13.4999 7.45699 13.5456 7.45699C13.5984 7.45699 13.656 7.4764 13.656 7.4764C13.6754 7.47948 13.6863 7.46251 13.6927 7.43746C13.71 7.37157 13.7591 7.17428 13.7688 7.13495" fill="#FFFFFE"/>
<path fill-rule="evenodd" clip-rule="evenodd" d="M11.2998 6.14961C11.2674 6.1355 11.234 6.12422 11.2003 6.1158C11.1552 6.10499 11.1094 6.09995 11.0636 6.10065C10.8814 6.10065 10.7379 6.17431 10.637 6.31977C10.5369 6.46419 10.469 6.68413 10.4347 6.97353L10.4223 7.07124H10.1937C10.1937 7.07124 10.1658 7.06959 10.16 7.11317L10.1224 7.41294C10.12 7.44163 10.1285 7.45952 10.1552 7.45935H10.3777L10.1521 9.26353C10.1342 9.40886 10.1142 9.52836 10.0918 9.61895C10.0697 9.70833 10.0481 9.77531 10.0214 9.82392C9.99567 9.87098 9.97141 9.90562 9.92927 9.9258C9.8947 9.94251 9.85468 9.95019 9.81071 9.95019C9.78645 9.95019 9.75401 9.94434 9.73005 9.93752C9.7061 9.93075 9.69367 9.92307 9.67578 9.91226C9.67578 9.91226 9.6497 9.89802 9.63939 9.93548C9.6309 9.96608 9.57178 10.1996 9.5648 10.2285C9.55753 10.257 9.56753 10.2794 9.58027 10.286C9.60968 10.3011 9.63181 10.3108 9.67214 10.3244C9.72824 10.3433 9.77554 10.3445 9.81981 10.3445C9.91229 10.3445 9.99688 10.3259 10.0669 10.2897C10.1373 10.2532 10.1988 10.1897 10.2531 10.1037C10.3116 10.011 10.3486 9.91382 10.3838 9.78134C10.4187 9.64999 10.4484 9.48699 10.4723 9.297L10.6991 7.45935H11.0308C11.0308 7.45935 11.0587 7.46082 11.0645 7.41741L11.1021 7.11764C11.1048 7.08895 11.0963 7.07107 11.0694 7.07124H10.7473C10.7489 7.06082 10.7637 6.89869 10.8004 6.74607C10.8162 6.68092 10.8459 6.6284 10.8711 6.59228C10.8947 6.5579 10.9235 6.53216 10.9553 6.51719C10.9905 6.50169 11.0269 6.49418 11.0636 6.49488C11.0939 6.49488 11.1236 6.50008 11.1464 6.50686C11.1776 6.51636 11.1897 6.5214 11.1979 6.52487C11.2307 6.53919 11.2349 6.5253 11.2416 6.50256L11.3183 6.19988C11.3265 6.16737 11.3071 6.15365 11.2998 6.14961ZM6.80131 9.2674C6.80131 9.29149 6.78918 9.31115 6.7725 9.31115H6.50537C6.48839 9.31115 6.47656 9.29149 6.47656 9.2674V6.19068C6.47656 6.16663 6.48839 6.14718 6.50537 6.14718H6.7725C6.78918 6.14718 6.80131 6.16663 6.80131 6.19068V9.2674Z" fill="#FFFFFE"/>
</g>
</svg>
