<svg width="18" height="18" viewBox="0 0 18 18" fill="none" xmlns="http://www.w3.org/2000/svg">
<path d="M4.78158 11.0988C4.7816 11.2999 4.74201 11.4991 4.66505 11.6849C4.5881 11.8707 4.4753 12.0395 4.33309 12.1817C4.19088 12.3239 4.02205 12.4367 3.83624 12.5137C3.65043 12.5906 3.45128 12.6302 3.25016 12.6302C3.04905 12.6302 2.8499 12.5906 2.66409 12.5137C2.47828 12.4367 2.30945 12.3239 2.16724 12.1817C2.02503 12.0395 1.91223 11.8707 1.83528 11.6849C1.75832 11.4991 1.71873 11.2999 1.71875 11.0988C1.71873 10.8977 1.75832 10.6985 1.83528 10.5127C1.91223 10.3269 2.02503 10.1581 2.16724 10.0159C2.30945 9.87366 2.47828 9.76086 2.66409 9.68391C2.8499 9.60696 3.04905 9.56736 3.25016 9.56738H4.78158V11.0988ZM5.55458 11.0988C5.55456 10.8977 5.59415 10.6985 5.67111 10.5127C5.74806 10.3269 5.86086 10.1581 6.00307 10.0159C6.14528 9.87366 6.31411 9.76086 6.49992 9.68391C6.68573 9.60696 6.88488 9.56736 7.08599 9.56738C7.28711 9.56736 7.48626 9.60696 7.67207 9.68391C7.85788 9.76086 8.02671 9.87366 8.16892 10.0159C8.31113 10.1581 8.42393 10.3269 8.50088 10.5127C8.57784 10.6985 8.61743 10.8977 8.61741 11.0988V14.9346C8.61743 15.1357 8.57784 15.3349 8.50088 15.5207C8.42393 15.7065 8.31113 15.8753 8.16892 16.0176C8.02671 16.1598 7.85788 16.2726 7.67207 16.3495C7.48626 16.4265 7.28711 16.4661 7.08599 16.466C6.88488 16.4661 6.68573 16.4265 6.49992 16.3495C6.31411 16.2726 6.14528 16.1598 6.00307 16.0176C5.86086 15.8753 5.74806 15.7065 5.67111 15.5207C5.59415 15.3349 5.55456 15.1357 5.55458 14.9346V11.0988Z" fill="#E01E5A"/>
<path d="M7.08599 4.94369C6.88488 4.94371 6.68573 4.90412 6.49992 4.82716C6.31411 4.75021 6.14528 4.63741 6.00307 4.4952C5.86086 4.35299 5.74806 4.18416 5.67111 3.99835C5.59415 3.81254 5.55456 3.61339 5.55458 3.41227C5.55456 3.21116 5.59415 3.01201 5.67111 2.8262C5.74806 2.64039 5.86086 2.47156 6.00307 2.32935C6.14528 2.18714 6.31411 2.07434 6.49992 1.99738C6.68573 1.92043 6.88488 1.88084 7.08599 1.88086C7.28711 1.88084 7.48626 1.92043 7.67207 1.99738C7.85788 2.07434 8.02671 2.18714 8.16892 2.32935C8.31113 2.47156 8.42393 2.64039 8.50088 2.8262C8.57784 3.01201 8.61743 3.21116 8.61741 3.41227V4.94369H7.08599ZM7.08599 5.71669C7.28711 5.71667 7.48626 5.75626 7.67207 5.83321C7.85788 5.91017 8.02671 6.02297 8.16892 6.16518C8.31113 6.30739 8.42393 6.47622 8.50088 6.66203C8.57784 6.84784 8.61743 7.04699 8.61741 7.2481C8.61743 7.44922 8.57784 7.64837 8.50088 7.83418C8.42393 8.01999 8.31113 8.18882 8.16892 8.33103C8.02671 8.47324 7.85788 8.58604 7.67207 8.66299C7.48626 8.73995 7.28711 8.77954 7.08599 8.77952H3.25016C3.04905 8.77954 2.8499 8.73995 2.66409 8.66299C2.47828 8.58604 2.30945 8.47324 2.16724 8.33103C2.02503 8.18882 1.91223 8.01999 1.83528 7.83418C1.75832 7.64837 1.71873 7.44922 1.71875 7.2481C1.71873 7.04699 1.75832 6.84784 1.83528 6.66203C1.91223 6.47622 2.02503 6.30739 2.16724 6.16518C2.30945 6.02297 2.47828 5.91017 2.66409 5.83321C2.8499 5.75626 3.04905 5.71667 3.25016 5.71669H7.08599Z" fill="#36C5F0"/>
<path d="M13.2421 7.2481C13.2421 7.04699 13.2817 6.84784 13.3586 6.66203C13.4356 6.47622 13.5484 6.30739 13.6906 6.16518C13.8328 6.02297 14.0016 5.91017 14.1874 5.83321C14.3732 5.75626 14.5724 5.71667 14.7735 5.71669C14.9746 5.71667 15.1738 5.75626 15.3596 5.83321C15.5454 5.91017 15.7142 6.02297 15.8564 6.16518C15.9986 6.30739 16.1114 6.47622 16.1884 6.66203C16.2653 6.84784 16.3049 7.04699 16.3049 7.2481C16.3049 7.44922 16.2653 7.64837 16.1884 7.83418C16.1114 8.01999 15.9986 8.18882 15.8564 8.33103C15.7142 8.47324 15.5454 8.58604 15.3596 8.66299C15.1738 8.73995 14.9746 8.77954 14.7735 8.77952H13.2421V7.2481ZM12.4691 7.2481C12.4691 7.44922 12.4295 7.64837 12.3526 7.83418C12.2756 8.01999 12.1628 8.18882 12.0206 8.33103C11.8784 8.47324 11.7095 8.58604 11.5237 8.66299C11.3379 8.73995 11.1388 8.77954 10.9377 8.77952C10.7366 8.77954 10.5374 8.73995 10.3516 8.66299C10.1658 8.58604 9.99695 8.47324 9.85474 8.33103C9.71253 8.18882 9.59973 8.01999 9.52278 7.83418C9.44582 7.64837 9.40623 7.44922 9.40625 7.2481V3.41227C9.40623 3.21116 9.44582 3.01201 9.52278 2.8262C9.59973 2.64039 9.71253 2.47156 9.85474 2.32935C9.99695 2.18714 10.1658 2.07434 10.3516 1.99738C10.5374 1.92043 10.7366 1.88084 10.9377 1.88086C11.1388 1.88084 11.3379 1.92043 11.5237 1.99738C11.7095 2.07434 11.8784 2.18714 12.0206 2.32935C12.1628 2.47156 12.2756 2.64039 12.3526 2.8262C12.4295 3.01201 12.4691 3.21116 12.4691 3.41227V7.2481Z" fill="#2EB67D"/>
<path d="M10.9377 13.4032C11.1388 13.4032 11.3379 13.4428 11.5237 13.5197C11.7095 13.5967 11.8784 13.7095 12.0206 13.8517C12.1628 13.9939 12.2756 14.1627 12.3526 14.3486C12.4295 14.5344 12.4691 14.7335 12.4691 14.9346C12.4691 15.1357 12.4295 15.3349 12.3526 15.5207C12.2756 15.7065 12.1628 15.8753 12.0206 16.0176C11.8784 16.1598 11.7095 16.2726 11.5237 16.3495C11.3379 16.4265 11.1388 16.4661 10.9377 16.466C10.7366 16.4661 10.5374 16.4265 10.3516 16.3495C10.1658 16.2726 9.99695 16.1598 9.85474 16.0176C9.71253 15.8753 9.59973 15.7065 9.52278 15.5207C9.44582 15.3349 9.40623 15.1357 9.40625 14.9346V13.4032H10.9377ZM10.9377 12.6302C10.7366 12.6302 10.5374 12.5906 10.3516 12.5137C10.1658 12.4367 9.99695 12.3239 9.85474 12.1817C9.71253 12.0395 9.59973 11.8707 9.52278 11.6849C9.44582 11.4991 9.40623 11.2999 9.40625 11.0988C9.40623 10.8977 9.44582 10.6985 9.52278 10.5127C9.59973 10.3269 9.71253 10.1581 9.85474 10.0159C9.99695 9.87366 10.1658 9.76086 10.3516 9.68391C10.5374 9.60696 10.7366 9.56736 10.9377 9.56738H14.7735C14.9746 9.56736 15.1738 9.60696 15.3596 9.68391C15.5454 9.76086 15.7142 9.87366 15.8564 10.0159C15.9986 10.1581 16.1114 10.3269 16.1884 10.5127C16.2653 10.6985 16.3049 10.8977 16.3049 11.0988C16.3049 11.2999 16.2653 11.4991 16.1884 11.6849C16.1114 11.8707 15.9986 12.0395 15.8564 12.1817C15.7142 12.3239 15.5454 12.4367 15.3596 12.5137C15.1738 12.5906 14.9746 12.6302 14.7735 12.6302H10.9377Z" fill="#ECB22E"/>
</svg>
