<svg width="19" height="18" viewBox="0 0 19 18" fill="none" xmlns="http://www.w3.org/2000/svg">
<g clip-path="url(#clip0_608_138297)">
<path d="M9.53501 17.8547C14.3297 17.8547 18.2165 13.9678 18.2165 9.17319C18.2165 4.37854 14.3297 0.491699 9.53501 0.491699C4.74035 0.491699 0.853516 4.37854 0.853516 9.17319C0.853516 13.9678 4.74035 17.8547 9.53501 17.8547Z" fill="#635BFF"/>
<path fill-rule="evenodd" clip-rule="evenodd" d="M12.6608 10.8538C12.6608 12.6335 11.2805 13.6459 9.23685 13.6459C8.31959 13.6452 7.41233 13.4555 6.57163 13.0886V10.7342C7.3962 11.1835 8.42409 11.519 9.23685 11.519C9.78656 11.519 10.151 11.3752 10.151 10.92C10.151 9.73337 6.41016 10.1766 6.41016 7.44458C6.41016 5.70116 7.77263 4.65869 9.7685 4.65869C10.5811 4.65869 11.394 4.7785 12.2127 5.10805V7.43278C11.4564 7.03361 10.6175 6.81614 9.7626 6.79764C9.24866 6.79764 8.90209 6.94748 8.90209 7.33693C8.90209 8.44538 12.6608 7.91807 12.6608 10.8599V10.8538Z" fill="white"/>
</g>
<defs>
<clipPath id="clip0_608_138297">
<rect width="17.363" height="17.363" fill="white" transform="translate(0.853516 0.491699)"/>
</clipPath>
</defs>
</svg>
