<svg width="20" height="18" viewBox="0 0 20 18" fill="none" xmlns="http://www.w3.org/2000/svg">
<path d="M11.3684 13.2416H12.9224C13.1481 13.2416 13.2826 13.0635 13.2826 12.8854V5.62855C13.2826 5.40596 13.1003 5.27235 12.9224 5.27235H11.3684C11.1427 5.27235 11.0081 5.45045 11.0081 5.62855V12.8854C11.0081 13.0635 11.1861 13.2416 11.3684 13.2416ZM2.90824 4.56003V10.1251H3.79811L2.90824 11.4162L2.01842 12.7073L1.12854 11.4162L0.234375 10.1251H1.17194V4.56003C1.17194 2.37859 2.95169 0.553223 5.17849 0.553223H14.5718C16.7552 0.553223 18.5784 2.33406 18.5784 4.56003H16.8421C16.8421 3.31355 15.8177 2.33406 14.6153 2.33406H5.13504C3.93266 2.28952 2.90824 3.31355 2.90824 4.56003ZM17.6451 5.76216L18.5349 7.05319L19.4248 8.34434H18.5349V13.9094C18.5349 16.0908 16.7552 17.9162 14.5284 17.9162H5.13504C2.95165 17.9162 1.12854 16.1354 1.12854 13.9094H2.90824C2.90824 15.1559 3.93266 16.1354 5.13504 16.1354H14.5284C15.7742 16.1354 16.7552 15.1114 16.7552 13.9094V8.38888H15.8611L16.7552 7.09772L17.6451 5.76216ZM6.73681 13.2416H8.29512C8.5165 13.2416 8.65109 13.0635 8.65109 12.8854V8.25531C8.65109 8.03267 8.47309 7.89911 8.29512 7.89911H6.73681C6.51543 7.89911 6.38083 8.07721 6.38083 8.25531V12.8409C6.38083 13.0635 6.55884 13.2416 6.73681 13.2416Z" fill="url(#paint0_linear_608_138311)"/>
<defs>
<linearGradient id="paint0_linear_608_138311" x1="0.234375" y1="17.9162" x2="21.9338" y2="13.8106" gradientUnits="userSpaceOnUse">
<stop stop-color="#E84D8C"/>
<stop offset="1" stop-color="#F8D98A"/>
</linearGradient>
</defs>
</svg>
