<svg width="18" height="18" viewBox="0 0 18 18" fill="none" xmlns="http://www.w3.org/2000/svg">
<path d="M8.77329 0.430176C3.98545 0.430176 0.0917969 4.32643 0.0917969 9.11167C0.0917969 13.8969 3.98544 17.7932 8.77285 17.7932C13.5611 17.7932 17.4548 13.8969 17.4548 9.11167C17.4548 4.32643 13.5611 0.430176 8.77329 0.430176Z" fill="url(#paint0_linear_608_138428)"/>
<path opacity="0.05" d="M8.77303 17.3596C4.22436 17.3596 0.523438 13.6595 0.523438 9.11173C0.523438 4.56436 4.22392 0.864746 8.77259 0.864746C13.3217 0.864746 17.0226 4.56436 17.0226 9.11173C17.0226 13.6595 13.3217 17.3596 8.77303 17.3596ZM7.37445 15.4714C7.83109 15.5721 8.30076 15.6228 8.77347 15.6228C9.35686 15.6228 9.93766 15.5443 10.5028 15.3889L8.90715 11.0169L7.37445 15.4714ZM2.44249 7.58726C2.32269 8.08384 2.26235 8.59431 2.26235 9.11173C2.26235 11.2231 3.24292 13.1417 4.91497 14.361L2.44249 7.58726ZM15.1769 7.93495C15.0853 8.32345 14.9569 8.7241 14.7893 9.14298L13.1272 13.9534C14.4894 12.7241 15.2841 10.9631 15.2841 9.11173C15.2841 8.71585 15.2481 8.32258 15.1769 7.93495ZM7.04758 12.0083L8.1076 8.82741L7.12441 6.08927C6.85832 6.06713 6.65301 6.04065 6.65301 6.04065C6.28231 6.01764 6.00189 5.70077 6.01492 5.30533C6.02794 4.90555 6.33397 4.60386 6.72724 4.60386L6.8236 4.60994C7.61579 4.6642 8.20743 4.69155 8.58203 4.69155C9.27916 4.69155 10.3887 4.6069 10.3999 4.60603H10.4012C10.8379 4.60603 11.1457 4.88254 11.1696 5.27842C11.1891 5.60831 10.9721 5.98726 10.5302 6.04108C10.4963 6.04499 10.4025 6.05584 10.2715 6.068L12.2174 11.885L12.5182 10.8832C12.8594 10.0081 13.0291 9.30012 13.0291 8.76143C13.0291 8.1598 12.7496 7.70272 12.5035 7.29947C12.4527 7.21656 12.4045 7.13756 12.3615 7.06246L12.276 6.92443C11.9383 6.37749 11.6201 5.86138 11.6201 5.21808C11.6201 4.64119 11.9808 4.08514 12.5174 3.78259C11.43 3.01776 10.1148 2.60061 8.77347 2.60061C6.95773 2.60061 5.25182 3.34678 4.02122 4.6629C4.60374 4.63816 5.1828 4.59388 5.19018 4.59345L5.24834 4.59128C5.6312 4.59128 5.93765 4.88124 5.96066 5.26583C5.98019 5.59572 5.76229 5.9751 5.3191 6.0285C5.28958 6.03197 5.19539 6.04282 5.06213 6.05541L7.04758 12.0083Z" fill="black"/>
<path opacity="0.07" d="M8.77278 17.1423C4.34349 17.1423 0.740234 13.5399 0.740234 9.11149C0.740234 4.68393 4.34349 1.08154 8.77235 1.08154C13.2016 1.08154 16.8053 4.68393 16.8053 9.11149C16.8053 13.5399 13.2021 17.1423 8.77278 17.1423ZM7.09118 15.6265C7.63725 15.768 8.20198 15.8396 8.77322 15.8396C9.45515 15.8396 10.131 15.7363 10.786 15.5319L8.90084 10.3673L7.09118 15.6265ZM2.42011 6.89424C2.17095 7.60612 2.04507 8.34969 2.04507 9.11149C2.04507 11.5219 3.2952 13.6927 5.3436 14.9016L2.42011 6.89424ZM15.1198 6.87601C15.0738 7.57226 14.9019 8.27677 14.5881 9.06201L12.6764 14.5934C14.4327 13.3389 15.5009 11.291 15.5009 9.11149C15.5009 8.34969 15.3707 7.59223 15.1198 6.87601ZM7.04777 12.6939L8.33741 8.82413L7.2813 5.88328C6.95705 5.86071 6.68054 5.82511 6.68054 5.82511C6.41749 5.80818 6.2226 5.59201 6.23171 5.31203C6.24083 5.03162 6.45397 4.82066 6.727 4.82066C6.77865 4.82283 7.91679 4.90835 8.58135 4.90835C9.2915 4.90835 10.4045 4.82327 10.4158 4.8224C10.4171 4.8224 10.4179 4.8224 10.4192 4.8224C10.7292 4.8224 10.9362 5.0199 10.9527 5.29163C10.967 5.5282 10.8173 5.78778 10.5039 5.82555C10.4917 5.82685 10.2699 5.85333 9.97821 5.87503L12.2289 12.6023L12.7263 10.9459C13.0736 10.0569 13.2464 9.32766 13.2464 8.76163C13.2464 8.09879 12.9373 7.59266 12.6886 7.18637C12.6391 7.1052 12.5918 7.02837 12.5497 6.95457L12.4607 6.81046C12.1399 6.29087 11.8369 5.79994 11.8369 5.21784C11.8369 4.59668 12.3274 4.0211 12.9468 3.83271C11.7649 2.89467 10.3007 2.38333 8.77322 2.38333C6.73524 2.38333 4.80534 3.31486 3.5322 4.89445C4.23584 4.88404 5.19645 4.81025 5.20686 4.80938L5.24766 4.80807C5.51853 4.80807 5.72688 5.00601 5.74338 5.27818C5.7577 5.51518 5.60751 5.77476 5.29237 5.81252C5.28065 5.81383 5.06015 5.8403 4.76802 5.86201L7.04777 12.6939Z" fill="black"/>
<path d="M8.77406 1.29883C4.4637 1.29883 0.958984 4.80398 0.958984 9.11174C0.958984 13.4195 4.46501 16.9255 8.7745 16.9255C13.0844 16.9255 16.59 13.4195 16.59 9.11174C16.59 4.80398 13.0844 1.29883 8.77406 1.29883ZM1.82974 9.11174C1.82974 8.10295 2.04548 7.14928 2.4305 6.28504L5.74423 15.3624C3.42714 14.2364 1.82974 11.862 1.82974 9.11174ZM8.77494 16.0569C8.09344 16.0569 7.43626 15.9588 6.81292 15.7739L8.89648 9.7177L11.0313 15.5677C11.0456 15.6012 11.0651 15.6324 11.0825 15.6632C10.3589 15.9163 9.58275 16.0569 8.77494 16.0569ZM9.68389 5.67604C10.1015 5.65563 10.4791 5.61006 10.4791 5.61006C10.8529 5.56491 10.8077 5.01407 10.434 5.03881C10.434 5.03881 9.31014 5.12563 8.58307 5.12563C7.90201 5.12563 6.75259 5.03881 6.75259 5.03881C6.37928 5.0132 6.33588 5.58575 6.71005 5.61006C6.71005 5.61006 7.06512 5.65607 7.43885 5.67604L8.56875 8.82221L7.04949 13.3804L4.47499 5.66345C4.89344 5.64305 5.26848 5.59747 5.26848 5.59747C5.64439 5.55232 5.59881 5.00148 5.22551 5.02623C5.22551 5.02623 4.09908 5.11304 3.37461 5.11304C3.24265 5.11304 3.20836 5.12823 3.10939 5.09611C4.36778 3.32379 6.43571 2.16654 8.77494 2.16654C10.5837 2.16654 12.2302 2.85412 13.4647 3.98879C13.4339 3.98792 13.4061 3.98532 13.3753 3.98532C12.6938 3.98532 12.0552 4.58217 12.0552 5.21809C12.0552 5.7889 12.3864 6.26985 12.7393 6.84674C13.0028 7.30772 13.4642 7.90371 13.4642 8.76187C13.4642 9.35872 13.2884 10.1053 12.9351 11.0082L12.241 13.3201L9.68389 5.67604ZM12.2675 15.1172L14.388 8.98151C14.7843 7.98922 14.9171 7.1979 14.9171 6.49123C14.9171 6.23686 14.901 5.99855 14.8702 5.77718C15.4111 6.76947 15.7197 7.90457 15.7197 9.11174C15.7197 11.6736 14.3328 13.9139 12.2675 15.1172Z" fill="white"/>
<defs>
<linearGradient id="paint0_linear_608_138428" x1="2.96016" y1="0.767018" x2="13.9045" y2="16.477" gradientUnits="userSpaceOnUse">
<stop stop-color="#0D61A9"/>
<stop offset="1" stop-color="#16528C"/>
</linearGradient>
</defs>
</svg>
