<svg width="49" height="49" viewBox="0 0 49 49" fill="none" xmlns="http://www.w3.org/2000/svg">
<path d="M24.0922 1.06365e-07C19.3276 -0.00044753 14.6698 1.41202 10.7079 4.05879C6.74608 6.70555 3.65806 10.4677 1.8344 14.8696C0.0107404 19.2714 -0.466644 24.1151 0.462616 28.7883C1.39188 33.4614 3.68604 37.754 7.05499 41.1233C10.4239 44.4926 14.7164 46.7871 19.3894 47.7168C24.0625 48.6465 28.9063 48.1696 33.3083 46.3464C37.7103 44.5231 41.4727 41.4355 44.1199 37.4738C46.767 33.5122 48.1799 28.8546 48.1799 24.0899C48.1802 20.9265 47.5574 17.794 46.347 14.8713C45.1366 11.9486 43.3624 9.29291 41.1256 7.05592C38.8888 4.81893 36.2333 3.04444 33.3107 1.83378C30.3881 0.623121 27.2556 9.2401e-08 24.0922 1.06365e-07ZM24.0922 45.0091C19.9548 45.0091 15.9103 43.7822 12.4702 41.4836C9.03003 39.185 6.34877 35.9178 4.76545 32.0954C3.18213 28.2729 2.76786 24.0667 3.57503 20.0088C4.3822 15.9509 6.37456 12.2235 9.30015 9.29788C12.2257 6.37228 15.9532 4.37993 20.0111 3.57276C24.069 2.76559 28.2752 3.17986 32.0976 4.76318C35.9201 6.3465 39.1872 9.02776 41.4859 12.4679C43.7845 15.908 45.0114 19.9525 45.0114 24.0899C45.0048 29.636 42.7987 34.9531 38.877 38.8747C34.9553 42.7964 29.6383 45.0025 24.0922 45.0091Z" fill="#121212"/>
<path d="M39.0728 26.2784C38.9184 26.2358 38.7571 26.2242 38.5982 26.244C38.4393 26.2639 38.2858 26.3149 38.1467 26.3942C38.0075 26.4734 37.8853 26.5794 37.7871 26.7059C37.689 26.8325 37.6167 26.9771 37.5746 27.1317C36.7596 30.075 35.005 32.6714 32.578 34.5253C30.151 36.3792 27.1845 37.3891 24.1305 37.4012C21.0764 37.4132 18.1021 36.4268 15.6605 34.592C13.2189 32.7573 11.4439 30.1749 10.6058 27.238C10.5612 27.0841 10.4867 26.9404 10.3866 26.8152C10.2865 26.69 10.1627 26.5858 10.0223 26.5085C9.73882 26.3523 9.40486 26.3151 9.09393 26.4051C8.783 26.4952 8.52057 26.7051 8.36438 26.9886C8.20819 27.2721 8.17102 27.6061 8.26106 27.917C9.24452 31.3661 11.3286 34.3991 14.1958 36.5539C17.0629 38.7086 20.5559 39.8669 24.1425 39.8523C27.729 39.8377 31.2124 38.651 34.0619 36.4729C36.9114 34.2949 38.9707 31.245 39.9261 27.788C39.97 27.6328 39.9828 27.4705 39.9636 27.3104C39.9444 27.1503 39.8937 26.9956 39.8144 26.8552C39.735 26.7148 39.6286 26.5916 39.5014 26.4926C39.3741 26.3936 39.2284 26.3208 39.0728 26.2784Z" fill="#121212"/>
<path d="M36.1584 26.2265C35.9321 26.8511 37.2402 27.1521 38.786 27.7134C40.3318 28.2747 41.5291 28.8835 41.7554 28.2589C41.9817 27.6342 41.9817 26.3917 39.6076 25.4502C37.2334 24.5087 36.387 25.5995 36.1584 26.2265Z" fill="#121212"/>
<path d="M12.0339 26.2265C12.2602 26.8511 10.9521 27.1521 9.4063 27.7134C7.8605 28.2747 6.66551 28.8835 6.43692 28.2589C6.20833 27.6342 6.2106 26.3917 8.58474 25.4502C10.9589 24.5087 11.8076 25.5995 12.0339 26.2265Z" fill="#121212"/>
<path d="M15.7053 16.3858L17.6697 25.4863C17.7758 25.9747 18.0433 26.4131 18.4291 26.7307C18.815 27.0484 19.2966 27.2267 19.7963 27.2369C20.296 27.2471 20.7845 27.0886 21.183 26.787C21.5815 26.4853 21.8667 26.0582 21.9925 25.5746L24.0928 17.4654L26.1909 25.5746C26.3159 26.0593 26.6008 26.4877 26.9997 26.7902C27.3985 27.0928 27.8878 27.2519 28.3883 27.2416C28.8888 27.2314 29.3712 27.0525 29.7574 26.7339C30.1435 26.4154 30.4108 25.9757 30.5159 25.4863L32.4781 16.3858L33.4967 21.2744L36.4389 21.048L36.1536 19.7444C35.821 17.7697 35.3445 15.8219 34.7278 13.9166C33.7252 10.8974 31.4619 10.8974 30.8192 12.527C30.1764 14.1565 28.2889 21.9307 28.2889 21.9307L26.2678 13.5092C26.1467 13.0033 25.874 12.5464 25.4861 12.1998C25.0982 11.8531 24.6137 11.6333 24.0974 11.5696C23.5806 11.6328 23.0956 11.8525 22.7073 12.1992C22.3189 12.5459 22.0458 13.003 21.9246 13.5092L19.9036 21.9307C19.9036 21.9307 18.016 14.1633 17.371 12.527C16.726 10.8906 14.4582 10.8974 13.4624 13.9189C12.8443 15.8239 12.367 17.7718 12.0343 19.7467L11.7695 21.2744H14.7117L15.7053 16.3858Z" fill="#121212"/>
<circle cx="13.2395" cy="21.3865" r="1.46998" fill="#121212"/>
<path d="M36.4383 21.1613C36.4383 21.9738 35.7797 22.6324 34.9672 22.6324C34.1547 22.6324 33.4961 21.9738 33.4961 21.1613C33.4961 20.3488 34.1547 19.6902 34.9672 19.6902C35.7797 19.6902 36.4383 20.3488 36.4383 21.1613Z" fill="#121212"/>
</svg>
