<svg width="18" height="18" viewBox="0 0 18 18" fill="none" xmlns="http://www.w3.org/2000/svg">
<g clip-path="url(#clip0_608_138401)">
<path d="M17.4548 10.969L8.77329 9.89941L0.0917969 10.969L8.77329 17.7666L17.4548 10.969Z" fill="#FCBF92"/>
<path d="M0.0917969 10.9688L8.77329 13.5645V17.7664L0.0917969 13.4117V10.9688Z" fill="#9D5025"/>
<path d="M17.4549 10.9688L8.77344 13.5645V17.7664L17.4549 13.4117V10.9688Z" fill="#F58534"/>
<path d="M1.21345 7.27588H0.0917969V9.7449L1.21345 9.94978L2.45837 8.62672L1.21345 7.27588Z" fill="#9D5025"/>
<path d="M2.45977 9.84734L1.21484 9.94978V7.27588H2.45977V9.84734Z" fill="#F58534"/>
<path d="M3.29812 4.19727L1.82227 4.47507V10.0781L3.29812 10.3837L4.64896 7.27572L3.29812 4.19727Z" fill="#9D5025"/>
<path d="M4.64967 10.2309L3.29883 10.3837V4.19727L4.64967 4.35006V10.2309Z" fill="#F58534"/>
<path d="M6.17535 5.44189L4.13867 5.64678V10.5605L6.17535 10.9685L8.33878 8.19219L6.17535 5.44189Z" fill="#9D5025"/>
<path d="M7.55093 10.7376L6.17578 10.9685V5.44189L7.55093 5.54434V10.7376Z" fill="#F58534"/>
<path d="M8.7738 0.986816L7.40039 1.42089V11.198L8.7738 11.4758L10.1472 6.23217L8.7738 0.986816Z" fill="#9D5025"/>
<path d="M10.043 10.7379L11.3695 10.9688L13.4062 7.27568L11.3695 3.61035L10.043 3.8135V10.7379Z" fill="#9D5025"/>
<path d="M13.4062 7.27568L11.3695 3.61035L10.043 3.8135" fill="#9D5025"/>
<path d="M12.8711 10.231L14.248 10.3838L15.7238 5.72353L14.248 1.08936L12.8711 1.42099V10.231Z" fill="#9D5025"/>
<path d="M15.0879 9.84719L16.3328 9.94963L17.4545 5.3415L16.3328 0.580566L15.0879 0.887891V9.84719Z" fill="#9D5025"/>
<path d="M8.77344 0.98686L10.1468 1.42093V11.198L8.77344 11.4758V0.98686ZM13.4076 4.01844L11.3709 3.61041V10.9688L13.4076 10.5608V4.01844ZM15.7238 1.67617L14.248 1.0893V10.3837L15.7238 10.0781V1.67617ZM17.4549 1.14139L16.3333 0.580566V9.94963L17.4549 9.74475V1.14139Z" fill="#F58534"/>
</g>
<defs>
<clipPath id="clip0_608_138401">
<rect width="17.363" height="17.363" fill="white" transform="translate(0.0917969 0.491699)"/>
</clipPath>
</defs>
</svg>
