<svg width="18" height="19" viewBox="0 0 18 19" fill="none" xmlns="http://www.w3.org/2000/svg">
<g clip-path="url(#clip0_608_138379)">
<path d="M3.13012 3.98193L1.9668 4.55491V14.7123L3.13012 15.2852V3.98193Z" fill="#8C3123"/>
<path d="M9.32749 13.8094L3.12891 15.2852V3.98193L9.32749 5.42306V13.8094Z" fill="#E05243"/>
<path d="M6.5332 11.5007L9.15501 11.8305L9.17238 11.7958L9.18974 7.4898L9.15501 7.45508L6.5332 7.78497V11.5007Z" fill="#8C3123"/>
<path d="M9.1543 13.827L15.1793 15.2855L15.1966 15.2681V3.98221L15.1793 3.96484L9.1543 5.4407V13.827Z" fill="#8C3123"/>
<path d="M11.7761 11.5007L9.1543 11.8305V7.45508L11.7761 7.78497V11.5007Z" fill="#E05243"/>
<path d="M11.7768 5.99628L9.15501 6.46508L6.5332 5.99628L9.15501 5.30176L11.7768 5.99628Z" fill="#5E1F18"/>
<path d="M11.7768 13.2891L9.15501 12.8203L6.5332 13.2891L9.15501 14.0357L11.7768 13.2891Z" fill="#F2B0A9"/>
<path d="M6.5332 5.9962L9.15501 5.33641H9.17238V0.9783L9.15501 0.960938L6.5332 2.28052V5.9962Z" fill="#8C3123"/>
<path d="M11.7761 5.9962L9.1543 5.33641V0.960938L11.7761 2.28052V5.9962Z" fill="#E05243"/>
<path d="M9.15501 18.3243L6.5332 17.0047V13.2891L9.15501 13.9489L9.18974 14.0009L9.17238 18.2549L9.15501 18.3243Z" fill="#8C3123"/>
<path d="M9.1543 18.3238L11.7761 17.0042V13.2885L9.1543 13.9483V18.3238ZM15.1793 3.98193L16.3426 4.55491V14.7123L15.1793 15.2852V3.98193Z" fill="#E05243"/>
</g>
<defs>
<clipPath id="clip0_608_138379">
<rect width="17.363" height="17.363" fill="white" transform="translate(0.472656 0.960938)"/>
</clipPath>
</defs>
</svg>
