<svg width="18" height="18" viewBox="0 0 18 18" fill="none" xmlns="http://www.w3.org/2000/svg">
<g clip-path="url(#clip0_606_138380)">
<path d="M2.35352 5.41486H13.9371C15.2106 5.41486 16.3444 4.84396 17.1121 3.92685C15.5246 1.88566 13.0125 0.553223 10.2038 0.553223C6.74965 0.553223 3.78405 2.54302 2.35352 5.41486Z" fill="#F0BF1A"/>
<path d="M17.1121 14.5028C16.3463 13.6237 15.2323 13.0547 13.9619 13.0547H2.35352C3.78075 15.9338 6.7394 17.9163 10.1853 17.9163C11.5244 17.9172 12.8458 17.6097 14.047 17.0178C15.2482 16.4258 16.2969 15.5652 17.1121 14.5028Z" fill="#3EBEB0"/>
<path d="M12.9235 6.8042H1.83198C1.60112 7.59382 1.48408 8.41234 1.48438 9.23502C1.48438 10.0797 1.60592 10.8901 1.83216 11.6658H12.9236C14.262 11.6658 15.3748 10.597 15.3748 9.23502C15.3748 7.87306 14.2795 6.8042 12.9235 6.8042Z" fill="#07A5DE"/>
<path d="M1.83615 6.8042C1.6026 7.59334 1.48412 8.41204 1.48438 9.23502C1.48438 10.0797 1.60765 10.8901 1.83615 11.6658H9.17236C9.36578 10.9418 9.47135 10.1315 9.47135 9.23502C9.47135 8.33857 9.36578 7.5456 9.17236 6.8042H1.83615Z" fill="#231F20"/>
<path d="M5.80076 1.76904C4.3381 2.62087 3.11957 3.89879 2.35352 5.41527H8.77782C8.11629 3.94983 7.0891 2.72314 5.80076 1.76904Z" fill="#D7A229"/>
<path d="M6.06919 16.8745C7.31933 15.8765 8.32638 14.5687 8.95145 13.0547H2.35352C3.16958 14.6549 4.4718 16.0142 6.06919 16.8745Z" fill="#019B8F"/>
</g>
<defs>
<clipPath id="clip0_606_138380">
<rect width="17.363" height="17.363" fill="white" transform="translate(0.617188 0.553223)"/>
</clipPath>
</defs>
</svg>
