<svg width="19" height="18" viewBox="0 0 19 18" fill="none" xmlns="http://www.w3.org/2000/svg">
<g clip-path="url(#clip0_606_32659)">
<path d="M9.67763 1.12029L2.57617 13.4201L3.20766 13.7847L10.3091 1.48474L9.67763 1.12029Z" fill="#E535AB"/>
<path d="M16.6385 12.4297H2.43555V13.1589H16.6385V12.4297Z" fill="#E535AB"/>
<path d="M3.08337 12.2214L2.71875 12.8529L9.81587 16.9505L10.1805 16.319L3.0832 12.2214H3.08337ZM9.24515 1.53516L8.88053 2.16665L15.9776 6.26431L16.3423 5.63282L9.24515 1.53516Z" fill="#E535AB"/>
<path d="M9.81196 1.52588L2.71484 5.62354L3.07947 6.25521L10.1766 2.15754L9.81196 1.52588Z" fill="#E535AB"/>
<path d="M9.3878 1.11475L8.75631 1.47937L15.8578 13.7791L16.4893 13.4145L9.3878 1.11475ZM3.71948 5.13723H2.99023V13.3326H3.71948V5.13723Z" fill="#E535AB"/>
<path d="M16.0652 5.13721H15.3359V13.3325H16.0652V5.13721Z" fill="#E535AB"/>
<path d="M15.5452 12.5137L9.36523 16.0818L9.68645 16.6381L15.8665 13.07L15.5452 12.5137Z" fill="#E535AB"/>
<path d="M17.0558 13.5755C16.6217 14.3221 15.6841 14.5651 14.9375 14.1484C14.1909 13.7317 13.9478 12.7768 14.3646 12.0302C14.7986 11.2835 15.7362 11.0405 16.4828 11.4572C17.2295 11.8912 17.4899 12.8289 17.0558 13.5755ZM4.69338 6.43927C4.2593 7.18588 3.3217 7.42896 2.57509 7.01225C1.82849 6.59554 1.5854 5.64058 2.01948 4.89397C2.45355 4.14736 3.39115 3.90428 4.13776 4.32099C4.86701 4.75506 5.12745 5.69267 4.69338 6.43927ZM2.01948 13.5755C1.5854 12.8289 1.84585 11.8912 2.59246 11.4572C3.33907 11.0231 4.27667 11.2835 4.71074 12.0302C5.14482 12.7768 4.88437 13.7144 4.13776 14.1484C3.39115 14.5651 2.45355 14.3221 2.01948 13.5755ZM14.3819 6.43927C13.9478 5.69267 14.2083 4.75506 14.9549 4.32099C15.7015 3.88692 16.6391 4.14736 17.0732 4.89397C17.5073 5.64058 17.2468 6.57818 16.5002 7.01225C15.7536 7.42896 14.7986 7.18588 14.3819 6.43927ZM9.53765 17.9162C8.68686 17.9162 7.99234 17.2217 7.99234 16.3709C7.99234 15.5201 8.68686 14.8256 9.53765 14.8256C10.3884 14.8256 11.083 15.5201 11.083 16.3709C11.083 17.2217 10.3884 17.9162 9.53765 17.9162ZM9.53765 3.64383C8.68686 3.64383 7.99234 2.94931 7.99234 2.09853C7.99234 1.24774 8.68686 0.553223 9.53765 0.553223C10.3884 0.553223 11.083 1.24774 11.083 2.09853C11.083 2.94931 10.3884 3.64383 9.53765 3.64383Z" fill="#E535AB"/>
</g>
<defs>
<clipPath id="clip0_606_32659">
<rect width="17.363" height="17.363" fill="white" transform="translate(0.855469 0.553223)"/>
</clipPath>
</defs>
</svg>
