<svg width="19" height="18" viewBox="0 0 19 18" fill="none" xmlns="http://www.w3.org/2000/svg">
<path d="M8.41712 0.553223C11.2416 0.553223 15.4943 1.42827 17.4897 3.4087C17.9967 3.9153 18.6565 4.89779 18.6565 6.35623C18.6565 8.93533 16.5842 12.8808 14.3123 15.1836C13.1299 16.3656 11.2573 17.9162 8.724 17.9162C6.25238 17.9162 4.36416 16.2275 3.82678 15.6902C1.73888 13.587 0.234375 10.4091 0.234375 7.43087C0.234375 5.55793 0.771749 3.9153 2.12259 2.54897C3.3814 1.27474 5.54615 0.553223 8.41712 0.553223ZM11.9171 10.8236C12.869 9.8718 13.1299 8.68973 13.1299 8.04496C13.1299 7.56904 13.007 6.87821 12.4236 6.29481C11.5181 5.38907 10.5354 5.14343 9.44542 5.14343C8.07939 5.14343 7.1583 5.57329 6.54409 6.18738C6.06791 6.66326 5.65379 7.41551 5.65379 8.47478C5.65379 9.53409 6.20637 10.5473 6.82015 11.1614C7.38835 11.7294 8.26344 12.1439 9.16936 12.1439C10.0748 12.1439 10.9656 11.7754 11.9171 10.8236Z" fill="#5952FF"/>
</svg>
