<svg width="18" height="18" viewBox="0 0 18 18" fill="none" xmlns="http://www.w3.org/2000/svg">
<g clip-path="url(#clip0_608_16033)">
<mask id="mask0_608_16033" style="mask-type:luminance" maskUnits="userSpaceOnUse" x="0" y="0" width="18" height="18">
<path d="M0.234375 0.491699H17.5974V17.8547H0.234375V0.491699Z" fill="white"/>
</mask>
<g mask="url(#mask0_608_16033)">
<path d="M15.157 13.724L11.483 11.6075C10.9674 11.3106 10.3076 11.4877 10.0072 12.0016C9.89423 12.1957 9.84561 12.4206 9.86828 12.644V16.7816C9.86828 17.3737 10.3492 17.8529 10.9448 17.8529C11.5369 17.8529 12.0196 17.372 12.0196 16.7816V14.4029L14.0788 15.5888C14.5945 15.8875 15.256 15.7086 15.5547 15.1947C15.8516 14.679 15.6745 14.0209 15.157 13.724ZM6.01891 9.18708C6.02585 8.80509 5.82271 8.44915 5.49107 8.25642L1.81707 6.14161C1.65733 6.04959 1.47502 6.00097 1.29097 6.00097C0.914192 6.00097 0.56346 6.20238 0.375939 6.52707C0.0842413 7.02886 0.257871 7.67303 0.763134 7.96473L2.88142 9.18361L0.763134 10.4042C0.642834 10.4727 0.537407 10.5644 0.453031 10.6742C0.368655 10.7839 0.307028 10.9093 0.271762 11.0432C0.198837 11.314 0.235299 11.5988 0.375939 11.8419C0.516507 12.0835 0.746976 12.2596 1.017 12.3319C1.28702 12.4041 1.57466 12.3665 1.81707 12.2273L5.49107 10.1108C5.82097 9.9198 6.02238 9.56559 6.01891 9.18708ZM2.65049 4.64145L6.3245 6.758C6.75336 7.00629 7.2812 6.92468 7.61977 6.59652C7.72936 6.49618 7.81683 6.37411 7.87662 6.23809C7.93641 6.10207 7.9672 5.95509 7.96703 5.80651V1.56473C7.96703 0.972654 7.48608 0.491699 6.89227 0.491699C6.29845 0.491699 5.81576 0.972654 5.81576 1.56473V3.97819L3.72873 2.77667C3.21305 2.47802 2.55326 2.65513 2.25288 3.16907C2.11045 3.41707 2.07232 3.71147 2.14688 3.98757C2.22144 4.26367 2.40258 4.49886 2.65049 4.64145ZM10.9135 9.35897C10.9135 9.44058 10.8667 9.5517 10.8094 9.61247L9.3526 11.0658C9.2953 11.1231 9.18071 11.1699 9.0991 11.1699H8.72753C8.64593 11.1699 8.53133 11.1231 8.47403 11.0658L7.01554 9.61247C6.95825 9.55344 6.91137 9.44058 6.91137 9.35897V8.98914C6.91137 8.9058 6.95825 8.79468 7.01554 8.73564L8.47403 7.28062C8.53133 7.22333 8.64593 7.17645 8.72753 7.17645H9.0991C9.18071 7.17645 9.2953 7.22333 9.3526 7.28062L10.8094 8.73564C10.8667 8.79294 10.9135 8.9058 10.9135 8.98914V9.35897ZM9.61305 9.18013V9.16451C9.61305 9.10547 9.57832 9.02213 9.53665 8.97872L9.10605 8.55159C9.06437 8.50819 8.98103 8.47346 8.92026 8.47346H8.90464C8.8456 8.47346 8.76226 8.50819 8.71885 8.55159L8.28999 8.97872C8.24831 9.0204 8.21359 9.10374 8.21359 9.16451V9.18013C8.21359 9.2409 8.24831 9.32425 8.28999 9.36592L8.71885 9.79478C8.76226 9.83646 8.8456 9.87118 8.90464 9.87118H8.92026C8.98103 9.87118 9.06437 9.83646 9.10605 9.79478L9.53665 9.36592C9.57832 9.32425 9.61305 9.24264 9.61305 9.18013ZM11.483 6.758L15.157 4.64145C15.6727 4.34454 15.8516 3.68475 15.5529 3.17081C15.2543 2.65513 14.5945 2.47976 14.0771 2.7784L12.0178 3.9643V1.56473C12.0178 0.972654 11.5369 0.491699 10.943 0.491699C10.3492 0.491699 9.86655 0.972654 9.86655 1.56473V5.72143C9.84571 5.93673 9.88912 6.16071 10.0054 6.36386C10.1494 6.61174 10.3858 6.79243 10.6628 6.86632C10.9398 6.9402 11.2347 6.90125 11.483 6.758ZM7.06242 11.4825C6.80997 11.4347 6.54877 11.4791 6.32623 11.6075L2.65049 13.724C2.13481 14.0209 1.95597 14.679 2.25461 15.1947C2.39812 15.4426 2.6342 15.6234 2.91095 15.6973C3.1877 15.7712 3.48247 15.7322 3.73047 15.5888L5.8175 14.3873V16.7816C5.8175 17.3737 6.29845 17.8529 6.894 17.8529C7.48608 17.8529 7.96877 17.372 7.96877 16.7816V12.5416C7.96776 12.2863 7.87607 12.0396 7.71006 11.8456C7.54405 11.6516 7.31452 11.5229 7.06242 11.4825ZM17.4524 6.51492C17.1555 5.99924 16.494 5.82213 15.9766 6.12078L12.3043 8.23559C12.1377 8.33171 11.9998 8.47059 11.9049 8.63787C11.8099 8.80515 11.7614 8.99476 11.7643 9.18708C11.7622 9.37808 11.8112 9.56616 11.9061 9.73191C12.001 9.89765 12.1385 10.035 12.3043 10.1299L15.9783 12.2464C16.494 12.5433 17.1538 12.3662 17.4542 11.8523C17.7528 11.3366 17.574 10.6786 17.0583 10.3817L14.9782 9.18361L17.0583 7.98556C17.1811 7.91519 17.2887 7.82123 17.375 7.70911C17.4613 7.59698 17.5246 7.46889 17.5612 7.33222C17.5979 7.19554 17.6071 7.05297 17.5884 6.9127C17.5698 6.77244 17.5235 6.63725 17.4524 6.51492Z" fill="#2CB5E8"/>
</g>
</g>
<defs>
<clipPath id="clip0_608_16033">
<rect width="17.363" height="17.363" fill="white" transform="translate(0.234375 0.491699)"/>
</clipPath>
</defs>
</svg>
