<svg width="19" height="19" viewBox="0 0 19 19" fill="none" xmlns="http://www.w3.org/2000/svg">
<g clip-path="url(#clip0_608_121474)">
<path d="M9.28345 7.50678C9.28345 8.47911 8.46739 9.29517 7.49506 9.29517C6.52274 9.29517 5.70668 8.47911 5.70668 7.50678C5.70668 6.53445 6.50537 5.70103 7.49506 5.70103C8.48475 5.70103 9.28345 6.51709 9.28345 7.50678ZM7.49506 9.98969C6.50537 9.98969 5.70668 10.8057 5.70668 11.7781C5.70668 12.7504 6.50537 13.5838 7.49506 13.5838C8.48475 13.5838 9.28345 12.7678 9.28345 11.7781C9.28345 10.7884 8.46739 9.98969 7.49506 9.98969ZM18.3122 9.64243C18.3122 14.452 14.4403 18.3239 9.63071 18.3239C4.82116 18.3239 0.949219 14.452 0.949219 9.64243C0.949219 4.83288 4.82116 0.960938 9.63071 0.960938C14.4403 0.960938 18.3122 4.83288 18.3122 9.64243ZM16.0029 9.64243C16.0029 6.11774 13.1728 3.27021 9.63071 3.27021C6.08866 3.27021 3.2585 6.11774 3.2585 9.64243C3.2585 13.1671 6.10602 16.0146 9.63071 16.0146C13.1554 16.0146 16.0029 13.1671 16.0029 9.64243ZM11.7664 9.98969C10.794 9.98969 9.97797 10.8057 9.97797 11.7781C9.97797 12.7504 10.794 13.5665 11.7664 13.5665C12.7387 13.5665 13.5721 12.7678 13.5721 11.7781C13.5721 10.7884 12.756 9.98969 11.7664 9.98969ZM11.7664 5.70103C10.794 5.70103 9.97797 6.51709 9.97797 7.50678C9.97797 8.49647 10.794 9.29517 11.7664 9.29517C12.7387 9.29517 13.5547 8.47911 13.5547 7.50678C13.5547 6.53445 12.756 5.70103 11.7664 5.70103Z" fill="#F22F46"/>
</g>
<defs>
<clipPath id="clip0_608_121474">
<rect width="17.363" height="17.363" fill="white" transform="translate(0.949219 0.960938)"/>
</clipPath>
</defs>
</svg>
