<svg width="24" height="18" viewBox="0 0 24 18" fill="none" xmlns="http://www.w3.org/2000/svg">
<path d="M10.8171 5.13822V17.9151H0.234375L10.8171 5.13822ZM10.8171 0.553223C10.8171 1.95659 10.2615 3.30248 9.2675 4.29481C8.2778 5.28715 6.93212 5.84464 5.52572 5.84464C4.12366 5.84464 2.77803 5.28715 1.784 4.29481C0.794308 3.30248 0.234375 1.95659 0.234375 0.553223H10.8171ZM12.5621 17.9162C12.5621 16.5128 13.1177 15.1669 14.1117 14.1746C15.1058 13.1823 16.4514 12.6248 17.8535 12.6248C19.2555 12.6248 20.6011 13.1823 21.5952 14.1746C22.5849 15.1669 23.1448 16.5128 23.1448 17.9162H12.5621ZM12.5621 13.3312V0.553223H23.1448L12.5621 13.3301V13.3312Z" fill="#03363D"/>
</svg>
