<svg width="19" height="18" viewBox="0 0 19 18" fill="none" xmlns="http://www.w3.org/2000/svg">
<g clip-path="url(#clip0_608_138304)">
<path d="M11.8728 17.8547H12.0847L15.5312 16.1305L15.5885 16.0489V2.29571L15.5312 2.21411L12.0847 0.491699H11.8711L11.8728 17.8547Z" fill="#5294CF"/>
<path d="M7.38973 17.8547H7.17616L3.73308 16.1305L3.66363 16.0107L3.62891 2.36516L3.73482 2.21411L7.17443 0.491699H7.39146L7.38973 17.8547Z" fill="#1F5B98"/>
<path d="M7.18164 0.491699H12.0815V17.8547H7.18164V0.491699Z" fill="#2D72B8"/>
<path d="M17.3356 8.78277L17.2193 8.75673L15.5559 8.6022L15.5316 8.61435L12.0816 8.47718H7.18177L3.73175 8.61435V5.98386L3.72828 5.98559L3.73175 5.97865L7.18177 5.17995H12.0833L15.5334 5.97865L16.8009 6.65233V6.21826L17.3374 6.15922L17.2818 6.05157L15.5855 4.8379L15.5334 4.85526L12.0833 3.78571H7.18177L3.73175 4.85526V2.21436L1.92773 4.32743V6.17312L1.94162 6.1627L2.46425 6.22V6.66275L1.92773 6.94924V8.78624L1.94162 8.78451L2.46425 8.79145V9.56237L2.01455 9.56931L1.92947 9.56063V11.3976L2.46599 11.6859V12.1338L1.95204 12.1911L1.92947 12.1738V14.0177L3.73348 16.1308V13.4899L7.18351 14.5594H12.0851L15.5438 13.4881L15.5889 13.509L17.2627 12.3144L17.3356 12.1946L16.7991 12.1356V11.698L16.7297 11.6702L15.5837 12.2884L15.542 12.3752L12.0833 13.1704V13.1669H7.18177V13.1652L3.73175 12.3665V9.72732L7.18177 9.86448V9.86796H12.0833L15.5334 9.72732L15.6115 9.76378L17.2228 9.62488L17.3356 9.56931L16.7991 9.56237V8.79145L17.3356 8.78277Z" fill="#1A476F"/>
<path d="M15.5293 13.4899V16.1325L17.3333 14.0177V12.1842L15.5397 13.4864L15.5293 13.4899ZM15.5293 12.3734L15.5397 12.3717L17.3333 11.4063V9.56237L15.5293 9.72905V12.3734ZM15.5397 5.98039L15.5293 5.97865V8.61435L17.3333 8.78277V6.94056L15.5397 5.98039ZM15.5397 4.86568L17.3333 6.15922V4.32743L15.5293 2.21436V4.857L15.5397 4.86047V4.86568Z" fill="#2D72B8"/>
</g>
<defs>
<clipPath id="clip0_608_138304">
<rect width="17.363" height="17.363" fill="white" transform="translate(0.949219 0.491699)"/>
</clipPath>
</defs>
</svg>
