<svg width="19" height="18" viewBox="0 0 19 18" fill="none" xmlns="http://www.w3.org/2000/svg">
<g clip-path="url(#clip0_606_134807)">
<path d="M17.7764 7.60792C18.0643 8.1019 18.216 8.66344 18.216 9.23522C18.216 9.80699 18.0643 10.3685 17.7764 10.8625L15.0765 15.5004C14.7863 15.9963 14.3712 16.4075 13.8726 16.693C13.374 16.9786 12.8093 17.1284 12.2347 17.1277H6.83386C6.25929 17.1284 5.69455 16.9786 5.19594 16.693C4.69733 16.4075 4.28227 15.9963 3.99212 15.5004L1.29121 10.8625C1.00327 10.3685 0.851563 9.80699 0.851562 9.23522C0.851563 8.66344 1.00327 8.1019 1.29121 7.60792L3.99212 2.97007C4.28227 2.47414 4.69733 2.06292 5.19594 1.7774C5.69455 1.49188 6.25929 1.34202 6.83386 1.34278H12.2357C13.4077 1.34278 14.4909 1.96302 15.0774 2.97007L17.7783 7.60792H17.7764Z" fill="#4487F9"/>
<path d="M14.2713 13.2832L12.5446 11.4669C13.135 10.7299 13.4803 9.79812 13.4803 8.81711C13.4803 6.46153 11.5579 4.49951 9.13957 4.49951C6.72226 4.49951 4.79883 6.41233 4.79883 8.81711C4.79883 11.2219 6.72226 13.1347 9.13957 13.1347C10.1074 13.1336 11.0463 12.8052 11.8038 12.2029L13.4803 13.9701L14.2713 13.2832ZM9.18973 12.1045C8.75689 12.1056 8.32805 12.0215 7.92772 11.8569C7.52738 11.6923 7.16339 11.4505 6.85651 11.1452C6.54964 10.84 6.30589 10.4773 6.1392 10.0778C5.9725 9.67834 5.88612 9.24995 5.88498 8.81711C5.88753 7.94301 6.23709 7.1057 6.85679 6.48925C7.4765 5.8728 8.31564 5.52767 9.18973 5.52972C10.0638 5.52767 10.903 5.8728 11.5227 6.48925C12.1424 7.1057 12.4919 7.94301 12.4945 8.81711C12.4945 10.6306 10.9637 12.1045 9.18973 12.1045Z" fill="white"/>
<path d="M9.53609 8.06766C9.53711 8.01471 9.52769 7.96207 9.50837 7.91276C9.48904 7.86345 9.4602 7.81843 9.42347 7.78027C9.38674 7.74211 9.34286 7.71156 9.29432 7.69036C9.24579 7.66917 9.19355 7.65774 9.1406 7.65674C9.08777 7.65787 9.03568 7.66939 8.98731 7.69065C8.93894 7.71192 8.89523 7.7425 8.85868 7.78066C8.82214 7.81882 8.79346 7.86381 8.77431 7.91306C8.75515 7.9623 8.74588 8.01484 8.74704 8.06766V11.1911C8.74704 11.4187 8.92356 11.603 9.14156 11.603C9.19451 11.6018 9.24673 11.5903 9.29522 11.569C9.3437 11.5477 9.38752 11.517 9.42416 11.4788C9.46079 11.4405 9.48954 11.3954 9.50874 11.346C9.52795 11.2967 9.53724 11.244 9.53609 11.1911V8.06766ZM7.16797 10.4686C7.16797 10.5602 7.21041 10.647 7.28372 10.7117C7.53259 10.9287 7.95798 10.7753 7.95798 10.4686V9.57921C7.95798 9.38918 7.7805 9.23484 7.56249 9.23484C7.34546 9.23484 7.16797 9.38918 7.16797 9.57921V10.4686ZM10.3251 10.2843C10.3251 10.7551 10.7496 10.9904 10.9994 10.6576C11.0767 10.5487 11.1172 10.4179 11.1152 10.2843V9.76345C11.1152 9.47117 10.9377 9.23484 10.7197 9.23484C10.5017 9.23484 10.3251 9.47117 10.3251 9.76248V10.2843Z" fill="white"/>
</g>
<defs>
<clipPath id="clip0_606_134807">
<rect width="17.363" height="17.363" fill="white" transform="translate(0.853516 0.553223)"/>
</clipPath>
</defs>
</svg>
