<svg width="18" height="19" viewBox="0 0 18 19" fill="none" xmlns="http://www.w3.org/2000/svg">
<g clip-path="url(#clip0_608_138392)">
<path d="M3.06386 15.802C3.36791 16.3306 3.80638 16.7694 4.33477 17.0738C4.86315 17.3782 5.46267 17.5375 6.07248 17.5354H11.3923C11.9942 17.5374 12.5863 17.3824 13.1099 17.0854C13.6335 16.7885 14.0705 16.3601 14.3778 15.8425L16.9938 11.3879C17.2933 10.8798 17.4524 10.3012 17.4548 9.71134C17.4572 9.12149 17.3027 8.54161 17.0073 8.03109L14.3739 3.46655C14.0683 2.94252 13.6303 2.5081 13.1037 2.20689C12.5771 1.90569 11.9806 1.74829 11.374 1.75051H6.09081C5.47666 1.74833 4.87303 1.90983 4.34203 2.21839C3.81102 2.52696 3.37183 2.97144 3.06965 3.5061L0.516324 8.0716C0.235697 8.57255 0.0894587 9.13758 0.0918251 9.71177C0.0941915 10.286 0.245082 10.8498 0.529828 11.3484L3.06386 15.802Z" fill="#4584EF"/>
<path d="M12.3734 6.74902H5.17161C5.10331 6.74902 5.0378 6.77616 4.9895 6.82446C4.9412 6.87276 4.91406 6.93827 4.91406 7.00657V8.42069C4.91406 8.56345 5.02982 8.67824 5.17161 8.67824H12.3734C12.5162 8.67824 12.6309 8.56249 12.6309 8.42069V7.00657C12.6309 6.93827 12.6038 6.87276 12.5555 6.82446C12.5072 6.77616 12.4417 6.74902 12.3734 6.74902ZM12.3734 10.6075H5.17161C5.10331 10.6075 5.0378 10.6346 4.9895 10.6829C4.9412 10.7312 4.91406 10.7967 4.91406 10.865V12.2791C4.91406 12.4219 5.02982 12.5367 5.17161 12.5367H12.3734C12.5162 12.5367 12.6309 12.4209 12.6309 12.2791V10.865C12.6309 10.7967 12.6038 10.7312 12.5555 10.6829C12.5072 10.6346 12.4417 10.6075 12.3734 10.6075Z" fill="white"/>
</g>
<defs>
<clipPath id="clip0_608_138392">
<rect width="17.363" height="17.363" fill="white" transform="translate(0.0917969 0.960938)"/>
</clipPath>
</defs>
</svg>
