<svg width="18" height="18" viewBox="0 0 18 18" fill="none" xmlns="http://www.w3.org/2000/svg">
<g clip-path="url(#clip0_608_134883)">
<path d="M3.80002 9.86587L5.52764 12.8558L2.53599 14.5834L0.806641 11.59L3.80002 9.86587ZM10.9883 13.8802H7.48271V17.3858H10.9883V13.8802ZM12.7802 12.8558L14.5095 9.86587L17.5029 11.59L15.7735 14.5817L12.7802 12.8558ZM15.7718 2.9502L12.7802 4.67816L14.5088 7.67154L17.5008 5.94357L15.7718 2.9502Z" fill="#F0524A"/>
<path d="M10.988 7.03418H7.48242V10.5398H10.988V7.03418Z" fill="#241F21"/>
<path d="M10.9887 0.0224609H7.4831V3.52805H10.9887V0.0224609ZM2.53673 2.94934L0.808594 5.94341L3.8011 7.67068L5.52924 4.67661L2.53673 2.94934Z" fill="#F0524A"/>
</g>
<defs>
<clipPath id="clip0_608_134883">
<rect width="17.363" height="17.363" fill="white" transform="translate(0.472656 0.0224609)"/>
</clipPath>
</defs>
</svg>
