<svg width="18" height="18" viewBox="0 0 18 18" fill="none" xmlns="http://www.w3.org/2000/svg">
<g clip-path="url(#clip0_606_134828)">
<path fill-rule="evenodd" clip-rule="evenodd" d="M8.91782 0.761719C4.12564 0.761719 0.236328 4.65103 0.236328 9.44321C0.236328 13.2804 2.71923 16.5273 6.17447 17.6733C6.60854 17.7601 6.76481 17.4823 6.76481 17.2565C6.76481 17.0482 6.76481 16.371 6.74745 15.6418C4.33399 16.1627 3.83047 14.6174 3.83047 14.6174C3.43112 13.6103 2.85814 13.3499 2.85814 13.3499C2.0768 12.8116 2.91023 12.829 2.91023 12.829C3.77838 12.8984 4.24718 13.7319 4.24718 13.7319C5.02851 15.0515 6.27865 14.6695 6.78217 14.4611C6.85162 13.9055 7.07734 13.5235 7.33779 13.2978C5.4105 13.0721 3.37903 12.3255 3.37903 9.00913C3.37903 8.05417 3.72629 7.2902 4.2819 6.68249C4.19509 6.45678 3.89992 5.58863 4.36872 4.39058C4.36872 4.39058 5.09796 4.16486 6.76481 5.27609C7.45933 5.0851 8.20594 4.98092 8.93518 4.98092C9.66443 4.98092 10.411 5.0851 11.1056 5.27609C12.755 4.1475 13.4843 4.39058 13.4843 4.39058C13.9531 5.58863 13.6579 6.47414 13.5711 6.68249C14.1267 7.2902 14.4566 8.07153 14.4566 9.00913C14.4566 12.3428 12.4251 13.0721 10.4979 13.2978C10.8104 13.5756 11.0882 14.0965 11.0882 14.9125C11.0882 16.0759 11.0708 17.0135 11.0708 17.2913C11.0708 17.517 11.2271 17.7948 11.6612 17.708C15.1164 16.5447 17.5993 13.2804 17.5993 9.44321C17.5993 4.65103 13.71 0.761719 8.91782 0.761719Z" fill="#191717"/>
<path d="M3.51864 13.2284C3.50128 13.2631 3.43182 13.2805 3.36237 13.2631C3.29292 13.2284 3.25819 13.1763 3.29292 13.1242C3.31028 13.0721 3.37973 13.0721 3.44919 13.0895C3.51864 13.1242 3.55336 13.1937 3.51864 13.2284ZM3.88326 13.6277C3.84854 13.6625 3.76172 13.6451 3.70963 13.593C3.65754 13.5409 3.64018 13.4541 3.69227 13.4194C3.72699 13.3847 3.81381 13.402 3.8659 13.4541C3.90062 13.5062 3.91799 13.593 3.88326 13.6277ZM4.21316 14.1313C4.16107 14.166 4.07425 14.1313 4.02217 14.0618C3.97008 13.9924 3.97008 13.8882 4.02217 13.8535C4.07425 13.8187 4.16107 13.8535 4.21316 13.9229C4.26525 13.9924 4.26525 14.0792 4.21316 14.1313ZM4.68196 14.6001C4.62987 14.6522 4.52569 14.6348 4.45624 14.5653C4.38679 14.4959 4.35206 14.3917 4.40415 14.3396C4.45624 14.2875 4.56042 14.3049 4.62987 14.3743C4.71668 14.4612 4.73405 14.548 4.68196 14.6001ZM5.34175 14.8952C5.32439 14.9647 5.22021 14.9994 5.1334 14.9647C5.02922 14.93 4.97713 14.8605 4.99449 14.7911C5.01185 14.7216 5.11603 14.6869 5.22021 14.7216C5.28966 14.739 5.35911 14.8258 5.34175 14.8952ZM6.05363 14.9473C6.05363 15.0168 5.96682 15.0862 5.86264 15.0862C5.75846 15.0862 5.67165 15.0341 5.67165 14.9647C5.67165 14.8952 5.75846 14.8258 5.86264 14.8258C5.96682 14.8084 6.05363 14.8605 6.05363 14.9473ZM6.71343 14.8258C6.73079 14.8952 6.66134 14.9647 6.55716 14.9821C6.45298 14.9994 6.36617 14.9647 6.3488 14.8952C6.33144 14.8258 6.40089 14.7563 6.50507 14.739C6.60925 14.7216 6.69606 14.7563 6.71343 14.8258Z" fill="#191717"/>
</g>
<defs>
<clipPath id="clip0_606_134828">
<rect width="17.363" height="17.363" fill="white" transform="translate(0.236328 0.553223)"/>
</clipPath>
</defs>
</svg>
