<svg width="19" height="19" viewBox="0 0 19 19" fill="none" xmlns="http://www.w3.org/2000/svg">
<path d="M15.9176 4.30428C15.9058 4.21659 15.8192 4.16794 15.7444 4.16266C15.6736 4.15735 14.2728 4.1386 14.2728 4.1386C14.2728 4.1386 13.1002 3.13471 12.9861 3.03258C12.872 2.93045 12.6438 2.96128 12.5572 2.98441C12.5572 2.98441 12.3369 3.04463 11.967 3.1453C11.908 2.96899 11.8175 2.75223 11.6876 2.5345C11.2705 1.83217 10.6586 1.46078 9.92086 1.4598C9.91968 1.4598 9.91928 1.4598 9.9181 1.4598C9.86655 1.4598 9.81579 1.46414 9.76464 1.468C9.74299 1.44487 9.72098 1.42223 9.69816 1.40007C9.37668 1.0966 8.96428 0.948706 8.47046 0.961728C7.51744 0.985793 6.56836 1.59325 5.7987 2.67226C5.25727 3.43144 4.84491 4.38522 4.72843 5.12367C3.63376 5.4228 2.8688 5.63185 2.85188 5.63668C2.29943 5.78986 2.28174 5.80479 2.20973 6.26435C2.15622 6.61164 0.710938 16.4751 0.710938 16.4751L12.8248 18.3239L18.0739 17.1721C18.0739 17.1721 15.9333 4.39196 15.9176 4.30428ZM11.361 3.31101C11.0816 3.38713 10.7657 3.47384 10.4218 3.56777C10.4147 3.14193 10.3572 2.54943 10.1325 2.03737C10.8573 2.15828 11.2115 2.88037 11.361 3.31101ZM9.78824 3.74116C9.15316 3.91458 8.46064 4.10387 7.76575 4.29369C7.96131 3.63327 8.33197 2.97573 8.78724 2.54461C8.95644 2.38421 9.19331 2.20547 9.47387 2.10338C9.7375 2.58892 9.79454 3.27632 9.78824 3.74116ZM8.48975 1.52148C8.71325 1.51714 8.90172 1.56047 9.06266 1.65392C8.80493 1.77195 8.55625 1.94152 8.32252 2.16262C7.71734 2.73584 7.25342 3.62556 7.06809 4.48395C6.49124 4.64147 5.92698 4.79614 5.40719 4.93775C5.73535 3.58656 7.0185 1.55905 8.48975 1.52148Z" fill="#95BF47"/>
<path d="M15.7439 4.16388C15.673 4.15856 14.2722 4.13978 14.2722 4.13978C14.2722 4.13978 13.0996 3.13592 12.9855 3.03379C12.9423 2.99573 12.8832 2.97597 12.8242 2.96777V18.3242L18.0733 17.1729C18.0733 17.1729 15.9327 4.39317 15.917 4.30549C15.9052 4.2178 15.8147 4.16915 15.7439 4.16388Z" fill="#5E8E3E"/>
<path d="M9.91375 6.54563L9.30426 8.55866C9.30426 8.55866 8.62391 8.28554 7.81805 8.33034C6.63563 8.39635 6.62305 9.05434 6.63524 9.2196C6.69938 10.1199 9.38335 10.3164 9.53405 12.4253C9.65249 14.0844 8.53657 15.2192 6.92918 15.3088C4.99992 15.4163 3.9375 14.4119 3.9375 14.4119L4.34633 12.8772C4.34633 12.8772 5.41583 13.5892 6.27166 13.5415C6.83041 13.5102 7.0303 13.1089 7.01024 12.8252C6.92603 11.6508 4.7406 11.7201 4.60249 9.79039C4.48602 8.16657 5.69481 6.52105 8.36107 6.3727C9.38806 6.31443 9.91375 6.54563 9.91375 6.54563Z" fill="white"/>
</svg>
