<svg width="225" height="189" viewBox="0 0 225 189" fill="none" xmlns="http://www.w3.org/2000/svg">
<path d="M207.07 93.8971C206.094 93.6279 205.073 93.5539 204.068 93.6796C203.062 93.8053 202.092 94.128 201.211 94.6295C200.331 95.1309 199.558 95.8011 198.937 96.6017C198.316 97.4023 197.859 98.3176 197.592 99.2951C192.436 117.916 181.336 134.342 165.982 146.07C150.627 157.799 131.86 164.188 112.539 164.264C93.2177 164.341 74.4009 158.1 58.9545 146.493C43.5081 134.885 32.2786 118.548 26.9763 99.9681C26.6942 98.9941 26.2231 98.0852 25.5898 97.2933C24.9565 96.5013 24.1734 95.8419 23.2852 95.3526C21.4915 94.3645 19.3788 94.1294 17.4117 94.699C15.4446 95.2686 13.7844 96.5963 12.7963 98.39C11.8081 100.184 11.573 102.296 12.1426 104.264C18.3644 126.084 31.5493 145.272 49.688 158.904C67.8268 172.536 89.9249 179.864 112.615 179.771C135.305 179.679 157.342 172.171 175.369 158.392C193.397 144.613 206.425 125.318 212.468 103.447C212.747 102.466 212.827 101.439 212.706 100.426C212.585 99.4131 212.264 98.4343 211.762 97.5462C211.26 96.6581 210.587 95.8783 209.781 95.2519C208.976 94.6256 208.055 94.1651 207.07 93.8971Z" fill="#92B6DE"/>
<path d="M188.629 93.5686C187.197 97.5204 195.473 99.4247 205.252 102.976C215.031 106.527 222.606 110.378 224.038 106.426C225.469 102.474 225.469 94.6138 210.45 88.6574C195.43 82.7011 190.075 89.6024 188.629 93.5686Z" fill="#92B6DE"/>
<path d="M36.0107 93.5686C37.4425 97.5204 29.1666 99.4247 19.3873 102.976C9.60794 106.527 2.04794 110.378 0.601803 106.426C-0.844335 102.474 -0.83002 94.6138 14.1898 88.6574C29.2095 82.7011 34.5789 89.6024 36.0107 93.5686Z" fill="#92B6DE"/>
<path d="M59.2349 31.3127L71.6631 88.8861C72.3338 91.9759 74.0263 94.7495 76.4673 96.7589C78.9084 98.7684 81.9554 99.8965 85.1165 99.961C88.2776 100.026 91.3682 99.0228 93.8892 97.1147C96.4103 95.2065 98.2146 92.5043 99.0108 89.4445L112.298 38.1424L125.571 89.4445C126.362 92.5113 128.165 95.2212 130.688 97.1354C133.211 99.0495 136.307 100.056 139.473 99.9912C142.639 99.9266 145.691 98.7948 148.134 96.7793C150.577 94.7638 152.268 91.9826 152.933 88.8861L165.347 31.3127L171.791 62.2397L190.404 60.8079L188.6 52.5608C186.496 40.0676 183.481 27.745 179.579 15.6915C173.236 -3.40897 158.918 -3.40897 154.852 6.90013C150.785 17.2092 138.844 66.3922 138.844 66.3922L126.058 13.1142C125.292 9.9135 123.566 7.02317 121.112 4.83019C118.659 2.63721 115.593 1.24624 112.327 0.843535C109.058 1.24351 105.989 2.63324 103.533 4.82643C101.076 7.01962 99.3481 9.91143 98.5813 13.1142L85.7952 66.3922C85.7952 66.3922 73.8538 17.2522 69.7731 6.90013C65.6924 -3.45192 51.3456 -3.40897 45.0456 15.7058C41.1356 27.7579 38.1159 40.0808 36.0108 52.5752L34.3359 62.2397H52.9496L59.2349 31.3127Z" fill="#92B6DE"/>
<circle cx="43.6356" cy="62.9486" r="9.29967" fill="#92B6DE"/>
<path d="M190.403 61.5236C190.403 66.6636 186.236 70.8304 181.096 70.8304C175.956 70.8304 171.789 66.6636 171.789 61.5236C171.789 56.3836 175.956 52.2168 181.096 52.2168C186.236 52.2168 190.403 56.3836 190.403 61.5236Z" fill="#92B6DE"/>
<circle cx="198.309" cy="181.125" r="7.19165" stroke="#92B6DE" stroke-width="1.36671"/>
<path d="M195.851 185.545V178.239H198.805C199.257 178.239 199.653 178.319 199.994 178.479C200.342 178.632 200.614 178.855 200.808 179.147C201.003 179.432 201.101 179.777 201.101 180.18V180.295C201.101 180.775 200.986 181.155 200.756 181.433C200.527 181.711 200.255 181.899 199.942 181.996V182.143C200.193 182.15 200.398 182.233 200.558 182.393C200.725 182.546 200.808 182.779 200.808 183.092V185.545H199.942V183.197C199.942 182.988 199.883 182.828 199.765 182.717C199.653 182.605 199.483 182.55 199.253 182.55H196.728V185.545H195.851ZM196.728 181.756H198.721C199.201 181.756 199.57 181.642 199.827 181.412C200.092 181.175 200.224 180.848 200.224 180.431V180.358C200.224 179.94 200.095 179.617 199.838 179.387C199.58 179.151 199.208 179.032 198.721 179.032H196.728V181.756Z" fill="#92B6DE"/>
</svg>
